<?xml version="1.0" encoding="UTF-8"?>
<!-- Generator: Adobe Illustrator 25.4.1, SVG Export Plug-In . SVG Version: 6.00 Build 0)  -->
<svg xmlns="http://www.w3.org/2000/svg" xmlns:xlink="http://www.w3.org/1999/xlink" version="1.1" id="Capa_1" x="0px" y="0px" viewBox="0 0 512 512" style="enable-background:new 0 0 512 512;" xml:space="preserve" width="512" height="512">
<g>
	<g>
		<path style="fill:#FFFFFF;" d="M0,488.485c0,8.196,6.645,14.841,14.841,14.841h482.319c8.196,0,14.841-6.645,14.841-14.841    c0,0,0-223.845,0-223.845c0-0.041,0-0.081,0-0.122c-0.023-45.788-12.22-92.749-36.538-131.745    c-19.002-31.638-45.218-59.358-75.647-79.954c-48.06-32.529-106.891-47.958-164.5-43.343c-11.217,0.899-22.371,2.566-33.365,4.964    C145.223,26.813,93.58,58.675,57.075,103.473C34.15,131.606,17.914,164.554,8.383,199.53c-5.63,20.659-7.624,41.664-8.356,62.989    L0,488.485z"/>
	</g>
	<g>
		<g>
			<path style="fill:#FFA7BB;" d="M497.159,264.639v223.845H14.841V319.079c0,0,23.524-32.395,23.549-32.988     c0.05-5.689-22.806-40.102-22.806-40.102c0.964-12.961,2.968-25.625,5.936-37.967c0.371-1.534,0.767-3.067,1.187-4.601     c4.353-16.819,10.512-32.897,18.229-48.059c0,0,1.025-0.485,1.169-0.76c0.12-0.227-0.378-0.748-0.378-0.748     c3.265-6.283,6.777-12.367,10.537-18.353c0,0,1.041-0.473,1.216-0.741c0.165-0.252-0.202-0.817-0.202-0.817     c4.329-6.703,9.003-13.183,13.975-19.416c0,0,1.205-0.504,1.45-0.81c0.195-0.243-0.139-0.848-0.139-0.848     c5.936-7.321,12.293-14.296,19.045-20.876c0,0,1.284-0.451,1.624-0.779c0.303-0.291,0.305-1.077,0.305-1.077     c9.177-8.756,19.046-16.795,29.508-24.042c0,0,2.248-0.971,2.851-1.38c0.518-0.351,0.513-0.896,0.513-0.896     c36.829-24.536,80.807-39.229,128.173-40.267c2.094-0.131,4.188-0.049,6.283-0.049c0,0,0.512,0.556,1.1,0.562     c0.756,0.008,2.932-0.513,2.932-0.513c12.772,0.225,25.543,1.498,38.115,3.76c0,0,1.237,0.396,1.88,0.52l28.329,31.82     l40.605-7.655c1.36,0.717,2.696,1.459,4.032,2.226c0,0-0.277,0.651,0.02,0.825c0.198,0.099,1.464,0.016,1.464,0.016     c0.198,0.124,0.421,0.223,0.618,0.346c39.718,24.853,73.728,57.98,95.118,100.016c4.033,7.925,7.441,16.059,10.696,24.324     c0.371,0.94,0.717,1.905,1.064,2.869C492.114,208.22,497.159,235.848,497.159,264.639z"/>
		</g>
		<g>
			<g>
				<g>
					<path style="fill:#FEE8DA;" d="M375.343,55.065L40.936,155.363c0.272-0.495,0.544-0.989,0.791-1.484v-0.025l332.132-99.63       c0.297,0.148,0.593,0.322,0.89,0.495C374.947,54.818,375.145,54.942,375.343,55.065z"/>
				</g>
			</g>
			<g>
				<g>
					<path style="fill:#FEE8DA;" d="M355.012,44.702l-302.748,90.8c0.347-0.519,0.693-1.039,1.014-1.558L353.28,43.935       C353.849,44.182,354.443,44.429,355.012,44.702z"/>
				</g>
			</g>
			<g>
				<g>
					<path style="fill:#FEE8DA;" d="M331.069,35.401L67.253,114.526c0.421-0.569,0.866-1.113,1.311-1.657l260.427-78.136       C329.684,34.956,330.376,35.179,331.069,35.401z"/>
				</g>
			</g>
			<g>
				<g>
					<path style="fill:#FEE8DA;" d="M301.61,27.783L87.609,91.994c0.643-0.618,1.286-1.237,1.929-1.855l209.475-62.825       C299.879,27.462,300.745,27.635,301.61,27.783z"/>
				</g>
			</g>
			<g>
				<g>
					<path style="fill:#FEE8DA;" d="M260.898,23.554L119.046,66.097c1.113-0.767,2.226-1.534,3.364-2.276l134.456-40.317       C258.226,23.48,259.562,23.504,260.898,23.554z"/>
				</g>
			</g>
		</g>
		<g>
			<g>
				<g>
					<path style="fill:#512A8D;" d="M94.538,378.494l12.63,21.893h304.811l11.788-21.893       C423.768,378.494,93.696,377.652,94.538,378.494z"/>
				</g>
				<g>
					<g>
						<path style="fill:#9F06C8;" d="M426.873,384.388H85.539c-4.273,0-7.736-3.464-7.736-7.736V115.942        c0-4.273,3.464-7.736,7.736-7.736h341.334c4.273,0,7.736,3.464,7.736,7.736v260.709        C434.609,380.924,431.146,384.388,426.873,384.388z"/>
					</g>
					<g>
						<g>
							<rect x="107.174" y="120.836" style="fill:#512A8D;" width="298.064" height="230.713"/>
						</g>
						<g>
							<rect x="139.594" y="145.93" style="fill:#21252A;" width="233.224" height="180.524"/>
						</g>
						<g>
							<path style="fill:#21252A;" d="M143.768,149.614c-0.122,0-0.245-0.039-0.349-0.118l-36.594-28.208         c-0.25-0.193-0.296-0.552-0.104-0.802c0.193-0.25,0.553-0.293,0.802-0.104l36.594,28.208c0.25,0.193,0.296,0.552,0.104,0.802         C144.108,149.538,143.938,149.614,143.768,149.614z"/>
						</g>
						<g>
							<path style="fill:#21252A;" d="M370.201,147.669c-0.174,0-0.345-0.078-0.458-0.228c-0.188-0.252-0.138-0.611,0.115-0.801         l35.037-26.262c0.251-0.187,0.612-0.138,0.801,0.115c0.188,0.252,0.138,0.611-0.115,0.801l-35.037,26.262         C370.442,147.631,370.321,147.669,370.201,147.669z"/>
						</g>
						<g>
							<path style="fill:#21252A;" d="M405.239,352.12c-0.123,0-0.248-0.041-0.351-0.123l-47.099-36.766         c-0.249-0.193-0.293-0.553-0.099-0.802c0.196-0.246,0.556-0.292,0.802-0.097l47.099,36.766         c0.249,0.193,0.293,0.553,0.099,0.802C405.577,352.043,405.408,352.12,405.239,352.12z"/>
						</g>
						<g>
							<path style="fill:#21252A;" d="M107.173,352.12c-0.167,0-0.332-0.075-0.446-0.215c-0.197-0.244-0.158-0.604,0.087-0.802         l36.983-29.763c0.245-0.198,0.604-0.159,0.804,0.087c0.197,0.244,0.158,0.604-0.087,0.802l-36.983,29.763         C107.426,352.077,107.299,352.12,107.173,352.12z"/>
						</g>
					</g>
					<g>
						<g>
							<path style="fill:#512A8D;" d="M336.198,365.653c0,4.534-3.676,8.21-8.21,8.21c-4.534,0-8.21-3.676-8.21-8.21         c0-4.534,3.676-8.21,8.21-8.21C332.522,357.443,336.198,361.119,336.198,365.653z"/>
						</g>
						<g>
							<path style="fill:#512A8D;" d="M364.826,365.653c0,4.534-3.676,8.21-8.21,8.21c-4.534,0-8.21-3.676-8.21-8.21         c0-4.534,3.676-8.21,8.21-8.21C361.151,357.443,364.826,361.119,364.826,365.653z"/>
						</g>
						<g>
							<path style="fill:#512A8D;" d="M393.455,365.653c0,4.534-3.676,8.21-8.21,8.21c-4.534,0-8.21-3.676-8.21-8.21         c0-4.534,3.676-8.21,8.21-8.21C389.779,357.443,393.455,361.119,393.455,365.653z"/>
						</g>
					</g>
					<g>
						<g>
							<path style="fill:#21252A;" d="M190.529,360.12h-75.781c-0.315,0-0.571-0.256-0.571-0.572c0-0.316,0.256-0.572,0.571-0.572         h75.781c0.315,0,0.571,0.256,0.571,0.572C191.1,359.864,190.844,360.12,190.529,360.12z"/>
						</g>
						<g>
							<path style="fill:#21252A;" d="M190.529,365.594h-75.781c-0.315,0-0.571-0.256-0.571-0.572c0-0.316,0.256-0.572,0.571-0.572         h75.781c0.315,0,0.571,0.256,0.571,0.572C191.1,365.338,190.844,365.594,190.529,365.594z"/>
						</g>
						<g>
							<path style="fill:#21252A;" d="M190.529,371.067h-75.781c-0.315,0-0.571-0.256-0.571-0.572s0.256-0.572,0.571-0.572h75.781         c0.315,0,0.571,0.256,0.571,0.572S190.844,371.067,190.529,371.067z"/>
						</g>
						<g>
							<path style="fill:#21252A;" d="M190.529,376.541h-75.781c-0.315,0-0.571-0.256-0.571-0.572c0-0.316,0.256-0.572,0.571-0.572         h75.781c0.315,0,0.571,0.256,0.571,0.572C191.1,376.285,190.844,376.541,190.529,376.541z"/>
						</g>
					</g>
					<g>
						<g>
							<g>
								<g>
									<g>
										<g>
											<rect x="181.687" y="218.167" style="fill:#A5DBFF;" width="2.947" height="89.254"/>
										</g>
									</g>
									<g>
										<g>
											<rect x="211.052" y="218.167" style="fill:#A5DBFF;" width="2.947" height="89.254"/>
										</g>
									</g>
									<g>
										<g>
											
												<rect x="182.448" y="229.824" transform="matrix(0.9877 -0.1562 0.1562 0.9877 -33.6677 33.7085)" style="fill:#A5DBFF;" width="30.369" height="2.475"/>
										</g>
									</g>
									<g>
										<g>
											<rect x="184.214" y="243.244" style="fill:#A5DBFF;" width="26.838" height="2.473"/>
										</g>
									</g>
									<g>
										<g>
											<rect x="184.214" y="259.662" style="fill:#A5DBFF;" width="26.838" height="2.473"/>
										</g>
									</g>
									<g>
										<g>
											
												<rect x="195.924" y="260.233" transform="matrix(0.1609 -0.987 0.987 0.1609 -105.9359 425.2924)" style="fill:#A5DBFF;" width="2.472" height="29.434"/>
										</g>
									</g>
									<g>
										<g>
											<rect x="183.265" y="290.292" style="fill:#A5DBFF;" width="29.367" height="2.473"/>
										</g>
									</g>
								</g>
								<g>
									<g>
										<g>
											<rect x="300.627" y="149.543" style="fill:#A5DBFF;" width="2.943" height="68.836"/>
										</g>
									</g>
									<g>
										<g>
											<rect x="329.987" y="149.543" style="fill:#A5DBFF;" width="2.943" height="68.836"/>
										</g>
									</g>
									<g>
										<g>
											<rect x="303.149" y="154.2" style="fill:#A5DBFF;" width="26.838" height="2.473"/>
										</g>
									</g>
									<g>
										<g>
											<rect x="303.149" y="170.618" style="fill:#A5DBFF;" width="26.838" height="2.473"/>
										</g>
									</g>
									<g>
										<g>
											
												<rect x="314.859" y="171.19" transform="matrix(0.1609 -0.987 0.987 0.1609 81.7415 467.9632)" style="fill:#A5DBFF;" width="2.472" height="29.434"/>
										</g>
									</g>
									<g>
										<g>
											<rect x="302.202" y="201.249" style="fill:#A5DBFF;" width="29.365" height="2.473"/>
										</g>
									</g>
								</g>
							</g>
							<g>
								<g>
									<rect x="142.954" y="216.062" style="fill:#EB7DFF;" width="228.608" height="6.736"/>
								</g>
							</g>
							<g>
								<g>
									<rect x="142.954" y="306.158" style="fill:#EB7DFF;" width="228.608" height="6.736"/>
								</g>
							</g>
							<g>
								<g>
									<rect x="250.733" y="176.487" style="fill:#FFA7BB;" width="13.472" height="34.102"/>
								</g>
							</g>
							<g>
								<g>
									<rect x="318.305" y="261.321" style="fill:#FFA7BB;" width="13.472" height="34.102"/>
								</g>
							</g>
						</g>
						<g>
							<g>
								<circle style="fill:#FFE400;" cx="174.53" cy="158.727" r="6.315"/>
							</g>
							<g>
								<circle style="fill:#FFE400;" cx="193.476" cy="158.727" r="6.315"/>
							</g>
							<g>
								<circle style="fill:#FFE400;" cx="156.848" cy="158.727" r="6.315"/>
							</g>
						</g>
					</g>
				</g>
			</g>
			<g>
				<g>
					<g>
						<path style="fill:#21252A;" d="M486.326,370.551c-7.445-13.703-21.791-23.844-43.829-31.042        c-2.77-0.915-5.59-1.756-8.41-2.572v2.572c2.573,0.742,5.12,1.534,7.643,2.35c21.395,6.975,35.296,16.77,42.419,29.879        c5.145,9.473,7.099,21.197,6.159,36.904c-0.866,14.272-3.636,25.006-8.731,33.738c-8.682,14.989-25.649,25.452-45.362,27.999        c-16.448,2.127-34.727-0.989-54.292-9.226c-5.911-2.473-11.774-5.367-17.462-8.138c-6.456-3.141-13.109-6.406-19.886-9.127        c-15.434-6.233-28.766-8.385-40.787-6.604c-0.544,0.074-1.064,0.173-1.583,0.272c-2.498-2.35-5.318-4.254-8.41-5.639        c-6.06-2.696-13.282-3.512-22.088-2.498c-5.442,0.618-10.784,1.855-15.929,3.661c-10.636,3.685-20.406,9.77-28.444,17.784        l1.756,1.756c7.544-7.544,16.696-13.307,26.688-16.918c5.219-1.905,10.66-3.191,16.226-3.834        c8.335-0.965,15.137-0.198,20.801,2.325c2.251,1.014,4.403,2.374,6.357,4.007c-13.035,3.29-23.844,11.922-28.222,22.854        c-3.339,8.335-3.191,18.353,0.421,27.43h2.696c-0.148-0.272-0.248-0.569-0.371-0.866c-3.389-8.509-3.562-17.858-0.445-25.649        c4.254-10.66,15.112-18.971,28.123-21.741c3.982,4.106,7,9.449,8.41,15.311c2.102,8.682,0.989,18.6-3.166,27.876        c-0.816,1.855-1.707,3.537-2.696,5.071h2.919c0.717-1.261,1.41-2.622,2.053-4.056c4.353-9.795,5.541-20.257,3.315-29.483        c-1.41-5.788-4.18-11.031-7.89-15.236c11.526-1.682,24.388,0.445,39.352,6.456c6.678,2.696,13.307,5.936,19.714,9.078        c5.714,2.795,11.625,5.689,17.611,8.187c19.961,8.41,38.66,11.576,55.553,9.399c20.455-2.647,38.091-13.554,47.193-29.211        c5.268-9.078,8.138-20.134,9.053-34.826C493.771,392.589,491.718,380.445,486.326,370.551z"/>
					</g>
				</g>
				<g>
					<g>
						<g>
							<polygon style="fill:#21252A;" points="50.122,467.327 142.499,439.961 255.785,467.327 255.574,481.641 50.964,481.641                 "/>
						</g>
					</g>
					<g>
						<g>
							<rect x="50.122" y="412.595" style="fill:#9F06C8;" width="205.663" height="54.731"/>
						</g>
					</g>
					<g>
						<g>
							<path style="fill:#21252A;" d="M86.75,426.91c0,3.023-5.089,5.473-11.367,5.473c-6.278,0-11.367-2.45-11.367-5.473         c0-3.023,5.089-5.473,11.367-5.473C81.66,421.437,86.75,423.887,86.75,426.91z"/>
						</g>
					</g>
				</g>
			</g>
			<g>
				<g>
					<g>
						<path style="fill:#A5DBFF;" d="M147.558,446.164c0,2.881-7.163,5.217-15.998,5.217s-15.998-2.336-15.998-5.217        c0-2.881,7.163-5.217,15.998-5.217S147.558,443.282,147.558,446.164z"/>
					</g>
					<g>
						<path style="fill:#A5DBFF;" d="M191.032,446.164c0,2.881-7.163,5.217-15.998,5.217c-8.836,0-15.998-2.336-15.998-5.217        c0-2.881,7.163-5.217,15.998-5.217C183.87,440.947,191.032,443.282,191.032,446.164z"/>
					</g>
					<g>
						<path style="fill:#A5DBFF;" d="M179.381,429.644c0,2.881-7.163,5.217-15.998,5.217s-15.998-2.336-15.998-5.217        c0-2.881,7.163-5.217,15.998-5.217S179.381,426.762,179.381,429.644z"/>
					</g>
					<g>
						<path style="fill:#A5DBFF;" d="M139.037,430.339c0,2.881-7.163,5.217-15.998,5.217c-8.836,0-15.998-2.336-15.998-5.217        c0-2.881,7.163-5.217,15.998-5.217C131.875,425.122,139.037,427.458,139.037,430.339z"/>
					</g>
				</g>
				<g>
					<g>
						<path style="fill:#21252A;" d="M74.834,452.222c0,1.395-3.016,2.526-6.736,2.526c-3.72,0-6.736-1.131-6.736-2.526        c0-1.395,3.016-2.526,6.736-2.526C71.818,449.697,74.834,450.827,74.834,452.222z"/>
					</g>
					<g>
						<path style="fill:#21252A;" d="M95.884,452.222c0,1.395-3.016,2.526-6.736,2.526s-6.736-1.131-6.736-2.526        c0-1.395,3.016-2.526,6.736-2.526S95.884,450.827,95.884,452.222z"/>
					</g>
				</g>
				<g>
					<g>
						<g>
							<polygon style="fill:#21252A;" points="212.925,448.854 220.503,418.963 228.502,450.118        "/>
						</g>
						<g>
							<circle style="fill:#21252A;" cx="220.713" cy="411.595" r="13.683"/>
						</g>
					</g>
					<g>
						<path style="fill:#21252A;" d="M220.713,455.787c-10.198,0-21.037-2.43-21.037-6.932c0-4.505,10.839-6.935,21.037-6.935        c10.198,0,21.037,2.43,21.037,6.935C241.751,453.357,230.911,455.787,220.713,455.787z M220.713,443.157        c-11.669,0-19.801,3.002-19.801,5.698c0,2.693,8.132,5.696,19.801,5.696s19.801-3.002,19.801-5.696        C240.514,446.159,232.382,443.157,220.713,443.157z"/>
					</g>
				</g>
			</g>
		</g>
		<g>
			<g>
				<circle style="fill:#FEE8DA;" cx="183.371" cy="69.052" r="10.104"/>
			</g>
			<g>
				<circle style="fill:#FEE8DA;" cx="391.771" cy="89.26" r="10.104"/>
			</g>
			<g>
				<path style="fill:#FEE8DA;" d="M473.868,322.92c0,5.581-4.524,10.104-10.104,10.104c-5.58,0-10.104-4.524-10.104-10.104      c0-5.58,4.524-10.104,10.104-10.104C469.344,312.816,473.868,317.34,473.868,322.92z"/>
			</g>
			<g>
				<circle style="fill:#FEE8DA;" cx="50.753" cy="369.652" r="10.104"/>
			</g>
		</g>
		<g>
			<g>
				<g>
					<circle style="fill:#A5DBFF;" cx="401.875" cy="440.382" r="36.628"/>
				</g>
				<g>
					<path style="fill:#EB7DFF;" d="M49.493,282.497c0,19.565-15.335,35.543-34.653,36.582c0,0,0-54.44,0-54.44       c0-6.22,0.273-12.449,0.742-18.65C34.554,247.374,49.493,263.18,49.493,282.497z"/>
				</g>
				<g>
					<path style="fill:#A5DBFF;" d="M369.827,51.998c-5.639,13.01-18.576,22.112-33.639,22.112       c-20.208,0-36.607-16.399-36.607-36.631c0-3.413,0.47-6.703,1.36-9.82c0.222,0.049,0.445,0.074,0.668,0.124       c5.046,0.965,10.042,2.102,14.965,3.389h0.024c1.88,0.47,3.76,0.989,5.615,1.534c2.275,0.643,4.526,1.311,6.777,2.028       c0.693,0.223,1.385,0.445,2.078,0.668c7.593,2.473,14.989,5.318,22.211,8.533c0.569,0.247,1.163,0.495,1.732,0.767       c0.47,0.198,0.965,0.42,1.435,0.643c2.226,1.014,4.427,2.078,6.629,3.166C365.351,49.624,367.601,50.786,369.827,51.998z"/>
				</g>
			</g>
			<g>
				<g>
					<g>
						<path style="fill:#21252A;" d="M482.839,182.62l-6.654,4.081c-0.247,0.148-0.519,0.223-0.792,0.223        c-0.346,0-0.692-0.124-0.964-0.371l-9.622-8.261l-10.858,7.94c-0.668,0.495-1.608,0.346-2.102-0.322        c-0.495-0.668-0.346-1.608,0.322-2.102l11.823-8.657c0.569-0.42,1.335-0.371,1.88,0.074l9.671,8.335l6.233-3.809        C482.146,180.691,482.492,181.655,482.839,182.62z"/>
					</g>
				</g>
				<g>
					<g>
						<path style="fill:#21252A;" d="M61.267,212.549c-0.495,0.668-1.435,0.841-2.102,0.371l-9.968-6.95l-12.293,7.519        c-0.248,0.173-0.519,0.223-0.792,0.223c-0.346,0-0.693-0.124-0.965-0.346l-9.622-8.261l-4.007,2.919        c0.371-1.534,0.767-3.067,1.187-4.601l2.003-1.459c0.569-0.42,1.336-0.396,1.88,0.074l9.671,8.311l12.219-7.47        c0.495-0.297,1.138-0.297,1.632,0.049l10.784,7.519C61.564,210.916,61.737,211.856,61.267,212.549z"/>
					</g>
				</g>
				<g>
					<g>
						<path style="fill:#21252A;" d="M358.574,424.37c-0.353,0-0.703-0.123-0.983-0.365l-9.611-8.258l-10.86,7.937        c-0.672,0.495-1.615,0.345-2.109-0.326c-0.491-0.674-0.345-1.618,0.328-2.109l11.826-8.645        c0.566-0.416,1.343-0.382,1.873,0.072l9.685,8.321l12.198-7.469c0.512-0.312,1.158-0.295,1.652,0.051l10.762,7.512        c0.684,0.476,0.852,1.418,0.374,2.101c-0.48,0.681-1.42,0.845-2.101,0.372l-9.953-6.947l-12.294,7.529        C359.118,424.297,358.845,424.37,358.574,424.37z"/>
					</g>
				</g>
			</g>
		</g>
		<g>
			<g>
				<path style="fill:#FFE400;" d="M239.779,85.26c16.478,8.316,23.103,28.4,14.786,44.879c-2.746,5.442-6.759,9.8-11.522,12.893      c-0.65-11.514-7.278-22.381-18.315-27.951c-11.037-5.57-23.7-4.439-33.349,1.878c-0.341-5.669,0.782-11.486,3.528-16.928      C203.224,83.552,223.316,76.951,239.779,85.26z"/>
			</g>
			<g>
				<path style="fill:#FFE400;" d="M471.247,292.298c-9.973,15.532-30.634,20.047-46.166,10.074      c-5.129-3.293-9.05-7.734-11.635-12.791c11.52,0.542,23.013-4.929,29.693-15.331c6.68-10.403,6.862-23.115,1.575-33.365      c5.674,0.246,11.344,1.964,16.473,5.257C476.719,256.115,481.21,276.781,471.247,292.298z"/>
			</g>
			<g>
				<path style="fill:#FFE400;" d="M46.446,311.685c-14.941-10.837-18.279-31.721-7.441-46.662      c3.579-4.934,8.235-8.597,13.43-10.892c-1.194,11.471,3.616,23.255,13.623,30.514c10.007,7.259,22.69,8.162,33.222,3.464      c-0.567,5.651-2.604,11.215-6.182,16.149C82.261,319.199,61.373,322.512,46.446,311.685z"/>
			</g>
		</g>
	</g>
</g>















</svg>
