<svg width="150" height="150" viewBox="0 0 150 150" fill="none" xmlns="http://www.w3.org/2000/svg">
<path d="M72.5376 135H77.5344C104.659 135 118.224 135 126.648 126.576C135.072 118.152 135 104.592 135 77.5344V72.4656C135 45.4128 135 31.848 126.648 23.424C118.296 15 104.659 15 77.5344 15H72.5376C45.408 15 31.848 15 23.424 23.424C15 31.848 15 45.4032 15 72.4656V77.5344C15 104.592 15 118.152 23.424 126.576C31.848 135 45.408 135 72.5376 135Z" fill="#0077FF"/>
<path d="M79.3932 101.519C52.3356 101.519 35.9148 82.746 35.2764 51.5508H48.9804C49.4076 74.466 59.8332 84.1908 67.8252 86.1732V51.5508H80.9628V71.322C88.6716 70.4676 96.7356 61.4724 99.4524 51.5508H112.369C110.3 63.7572 101.521 72.7524 95.31 76.4628C101.521 79.4628 111.515 87.3156 115.369 101.519H101.166C98.166 92.0244 90.8124 84.6708 80.9628 83.6724V101.519H79.3932Z" fill="white"/>
</svg>
