<svg width="60" height="60" viewBox="0 0 60 60" fill="none" xmlns="http://www.w3.org/2000/svg">
<path fill-rule="evenodd" clip-rule="evenodd" d="M31.2672 60H28.7688C15.204 60 8.424 60 4.212 55.788C0 51.576 0 44.796 0 31.2672V31.2672V28.7328V28.7328C0 15.2016 0 8.42401 4.212 4.21202C8.424 1.23978e-05 15.204 0 28.7688 0H31.2672C44.8296 0 51.648 1.23978e-05 55.824 4.21202C60 8.42402 60 15.2064 60 28.7328V31.2672L60 31.6082C60.0003 44.9102 60.0005 51.6115 55.824 55.788C51.612 60 44.8296 60 31.2672 60ZM10.1382 18.2754C10.4574 33.873 18.6678 43.2594 32.1966 43.2594H32.9814V34.3362C37.9062 34.8354 41.583 38.5122 43.083 43.2594H50.1846C48.2574 36.1578 43.2606 32.2314 40.155 30.7314C43.2606 28.8762 47.6502 24.3786 48.6846 18.2754H42.2262C40.8678 23.2362 36.8358 27.7338 32.9814 28.161V18.2754H26.4126V35.5866C22.4166 34.5954 17.2038 29.733 16.9902 18.2754H10.1382Z" fill="#99A2AD"/>
</svg>
