<svg width="467" height="456" viewBox="0 0 467 456" fill="none" xmlns="http://www.w3.org/2000/svg">
<path d="M165.986 299.517C161.023 299.517 157 295.494 157 290.531V155C157 132.63 161.662 111.065 170.861 90.8663V62.4202C170.861 53.8462 177.836 46.8712 186.411 46.8712H200.958C230.038 17.0324 270.277 0 312 0C353.436 0 394.188 17.1293 423.044 46.8712C426.257 46.8712 429.469 46.6538 432.685 46.7222C441.902 46.9178 450.91 52.0667 450.91 62.4208V86.1649C461.442 107.399 467 131.148 467 155V290.531C467 295.494 462.977 299.517 458.014 299.517H165.986V299.517Z" fill="white"/>
<path d="M458.015 155V208.434L457.705 208.819L458.015 209.185V218.183L457.626 218.569L458.015 218.933V227.947L457.62 228.284L458.015 228.696V237.696L457.695 238.072L458.015 238.445V247.444L457.718 247.854L458.015 248.196V257.193L457.709 257.597L458.015 257.945V266.946L457.682 267.344L458.015 267.693V276.693L457.686 277.058L458.015 277.443V286.458L457.611 286.85L458.015 287.206V290.531H442.206L441.045 290.282L438.612 290.531H395.691L394.518 290.236L392.093 290.531H349.213L348.174 290.291L345.639 290.531H302.744L301.759 290.248L299.182 290.531H256.261L255.501 290.204L252.681 290.531H209.813L209.199 290.2L194.311 282.828L174.784 290.531H165.986V289.977L166.456 289.635L165.986 289.213V280.227L166.495 279.833L165.986 279.462V270.463L166.281 270.063L165.986 269.714V155C165.986 74.3552 231.355 8.98578 312 8.98578C333.7 8.98578 354.307 13.7181 372.817 22.2244C372.817 22.2244 376 32.1147 380.821 35.0482C384.716 37.4174 399.129 37.8146 399.129 37.8146C404.835 42.0825 410.226 46.7404 415.243 51.7573C441.676 78.1739 458.015 114.685 458.015 155Z" fill="#9F06C8"/>
<path d="M458.015 208.434V209.183L165.986 270.463V269.715L458.015 208.434Z" fill="#FEE8DA"/>
<path d="M458.015 218.183V218.931L165.986 280.228V279.464L458.015 218.183Z" fill="#FEE8DA"/>
<path d="M458.015 227.947V228.696L165.986 289.977V289.214L458.015 227.947Z" fill="#FEE8DA"/>
<path d="M458.015 237.697V238.446L209.805 290.531H206.181L458.015 237.697Z" fill="#FEE8DA"/>
<path d="M458.015 247.446V248.194L256.26 290.531H252.681L458.015 247.446Z" fill="#FEE8DA"/>
<path d="M458.015 257.195V257.944L302.715 290.531H299.151L458.015 257.195Z" fill="#FEE8DA"/>
<path d="M458.015 266.944V267.693L349.185 290.531H345.621L458.015 266.944Z" fill="#FEE8DA"/>
<path d="M458.015 276.694V277.443L395.641 290.531H392.061L458.015 276.694Z" fill="#FEE8DA"/>
<path d="M458.015 286.458V287.207L442.155 290.531H438.591L458.015 286.458Z" fill="#FEE8DA"/>
<path d="M444.471 283.022C452.313 279.353 455.695 270.022 452.026 262.18C448.357 254.339 439.025 250.956 431.184 254.626C423.342 258.295 419.96 267.626 423.629 275.468C427.298 283.309 436.63 286.692 444.471 283.022Z" fill="#00F4FC"/>
<path d="M445.8 167.462C453.79 164.127 457.565 154.947 454.231 146.956C450.897 138.966 441.716 135.191 433.725 138.525C425.735 141.86 421.96 151.04 425.294 159.031C428.629 167.021 437.809 170.796 445.8 167.462Z" fill="#FFE400"/>
<path d="M188.048 163.639C196.047 160.326 199.846 151.155 196.532 143.156C193.219 135.157 184.048 131.358 176.049 134.672C168.05 137.985 164.251 147.156 167.565 155.155C170.878 163.154 180.049 166.953 188.048 163.639Z" fill="#FFE400"/>
<path d="M209.161 290.531H174.837L170.164 288.015L206.481 264.099L209.161 290.531Z" fill="#A5DBFF"/>
<path d="M399.13 37.814L384.708 39.5063L374.615 40.6894L362.514 42.0971L372.818 22.2244C382.162 26.5068 390.968 31.7484 399.13 37.814Z" fill="#EB7DFF"/>
<path d="M242.076 44.1945C242.076 47.2569 239.593 49.7387 236.531 49.7387C233.47 49.7387 230.987 47.2563 230.987 44.1945C230.987 41.1326 233.47 38.6502 236.531 38.6502C239.593 38.6502 242.076 41.1326 242.076 44.1945Z" fill="#FEE8DA"/>
<path d="M385.462 42.2829C385.462 45.3448 382.979 47.8272 379.917 47.8272C376.855 47.8272 374.373 45.3448 374.373 42.2829C374.373 39.2211 376.855 36.7386 379.917 36.7386C382.979 36.7386 385.462 39.2211 385.462 42.2829Z" fill="#FEE8DA"/>
<path d="M178.795 243.214C178.795 246.276 176.313 248.759 173.251 248.759C170.189 248.759 167.707 246.277 167.707 243.214C167.707 240.152 170.189 237.67 173.251 237.67C176.313 237.67 178.795 240.152 178.795 243.214Z" fill="#FEE8DA"/>
<path d="M453.713 166.359C453.713 169.421 451.231 171.904 448.169 171.904C445.107 171.904 442.625 169.422 442.625 166.359C442.625 163.297 445.107 160.815 448.169 160.815C451.231 160.815 453.713 163.297 453.713 166.359Z" fill="#FEE8DA"/>
<path d="M435.36 271.508H186.41C182.785 271.508 179.846 268.569 179.846 264.945V62.4207C179.846 58.7952 182.785 55.8568 186.41 55.8568H435.359C438.984 55.8568 441.923 58.7958 441.923 62.4207V264.945C441.924 268.57 438.985 271.508 435.36 271.508Z" fill="#21252A"/>
<path d="M425.544 69.3346H196.226V258.03H425.544V69.3346Z" fill="#512A8D"/>
<path d="M424.351 71.0488L423.551 69.9838L439.957 57.556C440.251 57.3331 440.67 57.3919 440.892 57.6867C441.112 57.9798 441.054 58.3964 440.761 58.6173L424.351 71.0488Z" fill="#512A8D"/>
<path d="M439.978 270.876L423.725 256.92L424.456 256.067L440.71 270.024C440.946 270.226 440.972 270.58 440.771 270.816C440.568 271.051 440.214 271.078 439.978 270.876Z" fill="#512A8D"/>
<path d="M181.952 270.68C181.741 270.452 181.755 270.097 181.983 269.885L199.079 254.065L199.843 254.89L182.746 270.71C182.518 270.921 182.163 270.907 181.952 270.68Z" fill="#512A8D"/>
<path d="M198.96 72.5237L181.87 57.3313C181.638 57.1254 181.618 56.7706 181.824 56.5387C182.03 56.3068 182.385 56.2862 182.616 56.4921L199.706 71.6839L198.96 72.5237Z" fill="#512A8D"/>
<path d="M414.624 78.3204H207.146V249.045H414.624V78.3204Z" fill="#A5DBFF"/>
<path d="M403.945 191.343H216.582V249.075H403.945V191.343Z" fill="#EB7DFF"/>
<g opacity="0.25">
<path opacity="0.25" d="M403.945 203.448H216.582V236.077H403.945V203.448Z" fill="#9F06C8"/>
</g>
<g opacity="0.25">
<path opacity="0.25" d="M403.945 203.448H216.582V221.929H403.945V203.448Z" fill="#9F06C8"/>
</g>
<path d="M403.945 191.343V224.994H388.265V211.605H370.684V232.631H355.378V212.369H342.379V238.368H327.463V211.605L315.618 210.842V223.077L303.756 222.688V211.216H291.147V239.895H280.05V210.842H271.259V221.16H258.649V210.452H249.844V228.813H234.943V211.995H216.582V191.343H403.945Z" fill="#512A8D"/>
<path d="M290.638 124.685V132.323H214.426V125.959H223.591V116.015H235.062V105.052H248.57V109.126H261.315V114.487H277.893V124.685H290.638Z" fill="#FEE8DA"/>
<path d="M393.365 162.157V169.795H317.154V163.43H326.319V153.486H337.791V142.524H351.299V146.597H364.043V151.959H380.621V162.157H393.365Z" fill="#FEE8DA"/>
<path d="M304.142 179.485V182.54H260.562V175.921H268.455V168.777H283.505V172.866H295.486V179.485H304.142Z" fill="#FEE8DA"/>
<path d="M381.574 102.549L372.773 91.7461L362.425 99.8976L351.737 91.7461L343.275 102.549V118.864L362.047 131.363C362.041 131.682 362.038 131.872 362.038 131.872L362.425 131.614L362.811 131.872C362.811 131.872 362.808 131.682 362.802 131.363L381.574 118.864V102.549V102.549Z" fill="#EB7DFF"/>
<path d="M258.772 149.568L251.172 140.239L242.235 147.279L233.006 140.239L225.698 149.568V163.657L241.908 174.451C241.904 174.726 241.901 174.89 241.901 174.89L242.235 174.668L242.569 174.89C242.569 174.89 242.566 174.726 242.561 174.451L258.772 163.657V149.568Z" fill="#EB7DFF"/>
<path d="M273.266 159.72V157.683H271.228V155.645H275.303V157.683H281.417V153.607H273.266V151.569H271.228V147.493H273.266V145.456H283.455V147.493H285.493V149.531H281.417V147.493H275.303V151.569H283.455V153.607H285.493V157.683H283.455V159.72H273.266Z" fill="#21252A"/>
<path d="M293.643 159.72V147.494H289.567V145.457H301.794V147.494H297.718V159.72H293.643Z" fill="#21252A"/>
<path d="M303.831 159.72V149.532H305.869V147.494H307.906V145.457H314.02V147.494H316.058V149.532H318.096V159.72H314.02V155.645H307.906V159.72H303.831ZM307.906 153.607H314.02V149.532H311.982V147.494H309.944V149.532H307.906V153.607V153.607Z" fill="#21252A"/>
<path d="M320.133 159.72V145.457H332.359V147.494H334.397V153.607H330.321V155.645H332.359V157.683H334.397V159.721H328.283V157.683H326.245V155.645H324.207V159.721H320.133V159.72ZM324.208 153.607H328.284V151.57H330.321V147.494H324.208V153.607V153.607Z" fill="#21252A"/>
<path d="M342.548 159.72V147.494H338.472V145.457H350.699V147.494H346.622V159.72H342.548Z" fill="#21252A"/>
<path d="M271.228 140.985V126.722H283.454V128.759H285.492V134.873H283.454V136.911H275.303V140.986H271.228V140.985ZM275.303 134.872H281.416V128.758H275.303V134.872Z" fill="#21252A"/>
<path d="M287.53 140.985V126.721H299.756V128.758H301.794V134.872H297.718V136.91H299.756V138.948H301.794V140.985H295.681V138.948H293.643V136.91H291.605V140.985H287.53V140.985ZM291.605 134.871H295.681V132.834H297.718V128.758H291.605V134.871Z" fill="#21252A"/>
<path d="M303.831 140.985V126.721H318.095V128.758H307.906V132.834H316.058V134.872H307.906V138.948H318.095V140.985H303.831V140.985Z" fill="#21252A"/>
<path d="M322.171 140.985V138.947H320.133V136.909H324.208V138.947H330.321V134.871H322.171V132.834H320.133V128.758H322.171V126.72H332.359V128.758H334.397V130.796H330.321V128.758H324.208V132.834H332.359V134.871H334.397V138.947H332.359V140.985H322.171Z" fill="#21252A"/>
<path d="M338.472 140.985V138.947H336.434V136.909H340.51V138.947H346.623V134.871H338.473V132.834H336.435V128.758H338.473V126.72H348.661V128.758H350.699V130.796H346.623V128.758H340.51V132.834H348.661V134.871H350.699V138.947H348.661V140.985H338.472Z" fill="#21252A"/>
<path d="M283.339 89.4726L288.64 92.3722L283.339 95.2718L280.439 100.573L277.54 95.2718L272.238 92.3722L277.54 89.4726L280.439 84.1712L283.339 89.4726Z" fill="#FEE8DA"/>
<path d="M399.577 135.738L404.879 138.638L399.577 141.538L396.678 146.84L393.778 141.538L388.476 138.638L393.778 135.738L396.678 130.437L399.577 135.738Z" fill="#FEE8DA"/>
<path d="M324.029 198.605L329.33 201.505L324.029 204.404L321.129 209.706L318.23 204.404L312.928 201.505L318.23 198.605L321.129 193.304L324.029 198.605Z" fill="#FEE8DA"/>
<path d="M232.644 188.281L237.946 191.181L232.644 194.081L229.744 199.382L226.845 194.081L221.543 191.181L226.845 188.281L229.744 182.98L232.644 188.281Z" fill="#FEE8DA"/>
<g opacity="0.23">
<path opacity="0.23" d="M414.624 78.3204L206.885 249.153L414.624 249.045V78.3204Z" fill="#FEE8DA"/>
</g>
<path d="M254.248 267.048H213.717C212.351 267.048 211.232 265.93 211.232 264.563C211.232 263.196 212.35 262.078 213.717 262.078H254.248C255.615 262.078 256.733 263.196 256.733 264.563C256.733 265.929 255.614 267.048 254.248 267.048Z" fill="#FEE8DA"/>
<path d="M317.337 267.048H276.807C275.44 267.048 274.322 265.93 274.322 264.563C274.322 263.196 275.44 262.078 276.807 262.078H317.337C318.704 262.078 319.823 263.196 319.823 264.563C319.823 265.929 318.704 267.048 317.337 267.048Z" fill="#FEE8DA"/>
<path d="M333.478 38.1142C333.07 38.1142 332.704 37.8266 332.621 37.4107L331.239 30.512L323.073 28.7343C322.702 28.6538 322.426 28.3426 322.389 27.9641L321.675 20.6531L313.945 19.6238C313.465 19.5602 313.129 19.1201 313.193 18.6411C313.257 18.1616 313.704 17.8256 314.175 17.8891L322.593 19.0099C322.995 19.0632 323.308 19.3871 323.348 19.7921L324.067 27.1595L332.169 28.9232C332.51 28.9971 332.774 29.2653 332.842 29.6062L334.337 37.0662C334.432 37.5402 334.125 38.0004 333.651 38.0955C333.593 38.1082 333.535 38.1142 333.478 38.1142Z" fill="#21252A"/>
<path d="M300.859 285.673C300.622 285.673 300.385 285.577 300.212 285.388C299.886 285.032 299.913 284.478 300.269 284.152L306.542 278.426C306.842 278.151 307.294 278.123 307.626 278.351L313.73 282.539L320.291 277.468C320.564 277.256 320.937 277.224 321.246 277.392L327.92 281.046C328.345 281.278 328.5 281.81 328.268 282.233C328.036 282.658 327.504 282.81 327.081 282.581L320.908 279.203L314.296 284.314C313.993 284.546 313.578 284.557 313.267 284.343L307.209 280.187L301.449 285.445C301.281 285.597 301.07 285.673 300.859 285.673Z" fill="#21252A"/>
<path d="M287.498 28.0266C297.475 33.0617 301.486 45.2219 296.45 55.1994C294.788 58.4944 292.358 61.133 289.475 63.0064C289.081 56.0344 285.068 49.4554 278.386 46.0829C271.703 42.7104 264.036 43.3952 258.194 47.2194C257.987 43.787 258.667 40.2649 260.33 36.9706C265.365 26.9931 277.53 22.9964 287.498 28.0266Z" fill="#FFE400"/>
<path d="M12.1274 446.938C12.1274 451.764 16.0401 455.676 20.8653 455.676H273.709C278.534 455.676 282.447 451.764 282.447 446.938V418.359L303.85 411.72C307.507 410.586 310 407.203 310 403.375V379.678C310 376.368 308.13 373.343 305.171 371.862L282.447 360.5V284.824C282.447 248.736 268.392 214.797 242.869 189.258C230.509 176.898 216.184 167.219 200.223 160.436C197.918 148.454 189.876 140 179.998 140C178.896 140 177.799 140 176.698 140C170.112 140 164.143 143.87 160.283 150.288C152.165 149.51 143.936 149.464 135.81 150.153C131.951 144.823 126.497 141.702 120.609 141.702C119.507 141.702 118.413 141.702 117.311 141.702C108.369 141.702 100.857 148.599 97.8274 159.028C77.92 166.851 59.9949 179.471 45.8586 195.517L23.2704 195.622C20.3492 195.622 17.6216 197.082 16 199.512L4.97664 216.046C-0.0439648 223.584 -1.3375 232.843 1.42282 241.437L12.4277 275.841L12.1274 446.938Z" fill="white"/>
<path d="M273.708 284.823V303.87L272.209 305.563L273.708 308.95V446.938H20.8652V354.955L23.0337 351.061L20.8652 348.589V284.823C20.8652 246.391 38.0203 211.964 65.0784 188.795C65.8213 188.154 66.5637 187.528 67.3208 186.916C89.1074 169.091 116.952 158.402 147.287 158.402C182.194 158.402 213.811 172.557 236.689 195.436C259.553 218.314 273.708 249.915 273.708 284.823Z" fill="#A5DBFF"/>
<path d="M273.708 303.872V308.998C273.65 308.94 273.592 308.881 273.548 308.809L268.014 300.682L259.378 305.386C258.707 305.75 257.892 305.546 257.47 304.935L251.936 296.808L243.315 301.512C242.66 301.877 241.83 301.672 241.408 301.061L235.873 292.935L227.252 297.638C226.597 297.988 225.767 297.799 225.344 297.172L219.811 289.061L211.19 293.765C210.534 294.114 209.704 293.925 209.296 293.298L203.02 284.094C202.568 283.439 202.729 282.522 203.398 282.07C204.068 281.619 204.971 281.793 205.422 282.464L210.956 290.575L219.577 285.871C220.233 285.522 221.062 285.711 221.485 286.337L227.019 294.449L235.64 289.745C236.296 289.396 237.111 289.585 237.533 290.211L243.067 298.323L251.703 293.619C252.359 293.269 253.174 293.459 253.597 294.085L259.131 302.197L267.766 297.508C268.437 297.144 269.252 297.347 269.674 297.959L273.708 303.872Z" fill="#EB7DFF"/>
<path d="M102.112 201.13C101.749 201.377 101.326 201.435 100.948 201.348C100.598 201.261 100.292 201.057 100.088 200.751L94.5398 192.625L85.9037 197.329C85.2483 197.692 84.4184 197.489 83.9961 196.877L78.4625 188.751L69.8412 193.455C69.1858 193.804 68.3559 193.615 67.9478 192.989L65.0789 188.794C65.8219 188.154 66.5642 187.527 67.3214 186.916L69.6075 190.265L78.2288 185.562C78.8842 185.212 79.6999 185.401 80.1223 186.028L85.6707 194.139L94.3068 189.45C94.9622 189.086 95.7779 189.289 96.2002 189.901L102.492 199.105C102.942 199.775 102.768 200.678 102.112 201.13Z" fill="#EB7DFF"/>
<path d="M94.1051 433.057C93.7666 432.975 93.4553 432.772 93.2438 432.462L87.701 424.342L79.0636 429.04C78.4064 429.399 77.5858 429.2 77.164 428.582L71.6255 420.463L63.0024 425.165C62.3458 425.523 61.5239 425.325 61.1028 424.707L55.5667 416.589L46.9405 421.289C46.2839 421.647 45.4626 421.449 45.0409 420.83L39.5073 412.713L30.8811 417.413C30.2245 417.772 29.4032 417.573 28.9815 416.955L22.7087 407.75C22.2549 407.085 22.4263 406.18 23.0915 405.727C23.7568 405.275 24.6607 405.445 25.1145 406.11L30.645 414.226L39.2712 409.526C39.9278 409.168 40.7491 409.367 41.1708 409.984L46.7044 418.101L55.3306 413.401C55.9872 413.043 56.8091 413.241 57.2302 413.859L62.7662 421.977L71.3894 417.276C72.046 416.918 72.8679 417.116 73.289 417.733L78.8275 425.853L87.4648 421.154C88.1215 420.796 88.9427 420.994 89.3644 421.612L95.6496 430.82C96.1028 431.484 95.932 432.391 95.2679 432.845C94.9134 433.086 94.4911 433.15 94.1051 433.057Z" fill="#EB7DFF"/>
<path d="M246.535 247.882L223.781 261.019L226.507 265.742L249.262 252.604L246.535 247.882Z" fill="#FFE400"/>
<path d="M30.6369 349.279L20.8651 354.915V348.624L27.9135 344.561L30.6369 349.279Z" fill="#FFE400"/>
<path d="M265.869 421.89L243.115 435.027L245.842 439.75L268.596 426.613L265.869 421.89Z" fill="#FFE400"/>
<path d="M176.635 247.881L153.88 261.019L156.607 265.741L179.361 252.604L176.635 247.881Z" fill="#FFE400"/>
<path d="M223.235 324.723L200.481 337.861L203.208 342.583L225.962 329.446L223.235 324.723Z" fill="#FFE400"/>
<path d="M130.539 439.759L118.102 446.938H107.194L127.802 435.041L130.539 439.759Z" fill="#FFE400"/>
<path d="M260.82 281.355C263.969 281.355 266.522 278.802 266.522 275.653C266.522 272.505 263.969 269.952 260.82 269.952C257.672 269.952 255.119 272.505 255.119 275.653C255.119 278.802 257.672 281.355 260.82 281.355Z" fill="#FEE8DA"/>
<path d="M260.82 341.838C263.969 341.838 266.522 339.285 266.522 336.137C266.522 332.988 263.969 330.435 260.82 330.435C257.672 330.435 255.119 332.988 255.119 336.137C255.119 339.285 257.672 341.838 260.82 341.838Z" fill="#FEE8DA"/>
<path d="M109.117 405.295C109.117 408.444 106.564 410.996 103.416 410.996C100.267 410.996 97.7144 408.444 97.7144 405.295C97.7144 402.146 100.267 399.594 103.416 399.594C106.564 399.594 109.117 402.146 109.117 405.295Z" fill="#FEE8DA"/>
<path d="M37.9751 438.511C41.1238 438.511 43.6764 435.959 43.6764 432.81C43.6764 429.661 41.1238 427.109 37.9751 427.109C34.8264 427.109 32.2738 429.661 32.2738 432.81C32.2738 435.959 34.8264 438.511 37.9751 438.511Z" fill="#FEE8DA"/>
<path d="M200.337 197.571C203.486 197.571 206.038 195.018 206.038 191.87C206.038 188.721 203.486 186.168 200.337 186.168C197.188 186.168 194.636 188.721 194.636 191.87C194.636 195.018 197.188 197.571 200.337 197.571Z" fill="#FEE8DA"/>
<path d="M117.31 187.969C124.03 187.969 129.477 179.568 129.477 169.204C129.477 158.841 124.03 150.439 117.31 150.439C110.591 150.439 105.144 158.841 105.144 169.204C105.144 179.568 110.591 187.969 117.31 187.969Z" fill="#EB7DFF"/>
<path d="M120.61 187.969C127.329 187.969 132.776 179.568 132.776 169.204C132.776 158.841 127.329 150.439 120.61 150.439C113.89 150.439 108.443 158.841 108.443 169.204C108.443 179.568 113.89 187.969 120.61 187.969Z" fill="#FFE400"/>
<path d="M120.841 186.439C114.749 186.439 109.793 178.708 109.793 169.204C109.793 159.701 114.749 151.969 120.841 151.969C126.934 151.969 131.89 159.701 131.89 169.204C131.89 178.708 126.934 186.439 120.841 186.439ZM120.841 152.568C115.08 152.568 110.393 160.031 110.393 169.204C110.393 178.377 115.08 185.841 120.841 185.841C126.602 185.841 131.29 178.377 131.29 169.204C131.29 160.031 126.602 152.568 120.841 152.568Z" fill="#EB7DFF"/>
<path d="M150.02 216.812C156.74 216.812 162.187 208.411 162.187 198.047C162.187 187.684 156.74 179.283 150.02 179.283C143.301 179.283 137.854 187.684 137.854 198.047C137.854 208.411 143.301 216.812 150.02 216.812Z" fill="#EB7DFF"/>
<path d="M153.32 216.812C160.039 216.812 165.486 208.411 165.486 198.047C165.486 187.684 160.039 179.283 153.32 179.283C146.6 179.283 141.153 187.684 141.153 198.047C141.153 208.411 146.6 216.812 153.32 216.812Z" fill="#FFE400"/>
<path d="M153.552 215.283C147.459 215.283 142.503 207.552 142.503 198.047C142.503 188.544 147.459 180.812 153.552 180.812C159.644 180.812 164.6 188.544 164.6 198.047C164.6 207.552 159.644 215.283 153.552 215.283ZM153.552 181.411C147.79 181.411 143.103 188.874 143.103 198.047C143.103 207.221 147.79 214.684 153.552 214.684C159.313 214.684 164 207.221 164 198.047C164 188.874 159.313 181.411 153.552 181.411Z" fill="#EB7DFF"/>
<path d="M176.698 186.268C183.418 186.268 188.865 177.867 188.865 167.503C188.865 157.14 183.418 148.738 176.698 148.738C169.979 148.738 164.532 157.14 164.532 167.503C164.532 177.867 169.979 186.268 176.698 186.268Z" fill="#EB7DFF"/>
<path d="M179.997 186.268C186.717 186.268 192.164 177.867 192.164 167.503C192.164 157.14 186.717 148.738 179.997 148.738C173.278 148.738 167.831 157.14 167.831 167.503C167.831 177.867 173.278 186.268 179.997 186.268Z" fill="#FFE400"/>
<path d="M180.23 184.738C174.137 184.738 169.181 177.007 169.181 167.503C169.181 157.999 174.138 150.267 180.23 150.267C186.323 150.267 191.278 157.999 191.278 167.503C191.278 177.007 186.323 184.738 180.23 184.738ZM180.23 150.866C174.469 150.866 169.781 158.329 169.781 167.503C169.781 176.676 174.469 184.14 180.23 184.14C185.991 184.14 190.679 176.676 190.679 167.503C190.679 158.329 185.991 150.866 180.23 150.866Z" fill="#EB7DFF"/>
<path d="M194.647 327.555L66.9768 348.123L59.2051 349.666L44.5897 347.694L9.74508 238.775C7.80786 232.743 8.73578 226.166 12.2508 220.888L23.2704 204.359H23.3746L151.212 203.768L194.647 327.555Z" fill="#512A8D"/>
<path d="M66.9768 348.123L59.2051 349.666L44.5897 347.694L9.74508 238.775C7.80786 232.743 8.73578 226.166 12.2508 220.888L23.2704 204.359H23.3746L66.9768 348.123Z" fill="#21252A"/>
<path d="M301.262 379.677V403.374L165.792 445.388L165.026 445.62L63.9433 376.915L65.9206 346.908L195.44 326.76L300.868 379.48L301.262 379.677Z" fill="#512A8D"/>
<path d="M170.559 420.356L165.792 445.388L165.026 445.62L64.3379 377.31L65.9206 346.908L170.559 420.356Z" fill="#21252A"/>
<path d="M65.9187 347.489C65.6388 347.489 65.3928 347.285 65.3472 346.999C65.2972 346.682 65.5149 346.386 65.8306 346.336L194.237 326.267C194.551 326.217 194.85 326.435 194.9 326.751C194.949 327.067 194.732 327.364 194.416 327.414L66.01 347.482C65.9798 347.487 65.9483 347.489 65.9187 347.489Z" fill="#21252A"/>
<path d="M130.159 342.815L128.85 342.984L131.926 366.85L133.234 366.681L130.159 342.815Z" fill="#21252A"/>
<path d="M116.87 367.418L131.195 358.431L148.59 365.951C150.126 366.467 150.49 368.506 149.196 369.481C144.952 372.679 135.11 377.193 117.022 371.222C115.246 370.637 115.15 368.149 116.87 367.418Z" fill="#21252A"/>
<path d="M146.135 337.836C147.176 343.039 139.882 348.885 129.843 350.895C119.803 352.905 110.82 350.317 109.779 345.114C108.737 339.912 116.032 334.066 126.071 332.056C136.11 330.046 145.094 332.634 146.135 337.836Z" fill="#EB7DFF"/>
<path d="M127.644 333.926C126.694 334.468 126.04 335.526 126.831 336.29C127.224 336.669 127.86 336.858 128.462 337.016C130.735 337.612 133.066 338.055 135.416 338.339C136.408 338.459 137.422 338.549 138.38 338.414C139.337 338.278 140.242 337.882 140.629 337.237C141.28 336.153 140.303 334.82 139.162 333.854C136.759 331.819 130.062 332.546 127.644 333.926Z" fill="#FEE8DA"/>
<path d="M236.28 375.122C235.986 375.122 235.717 374.924 235.64 374.626C235.551 374.273 235.764 373.913 236.117 373.823L266.11 366.139C266.456 366.047 266.823 366.26 266.914 366.615C267.003 366.967 266.79 367.328 266.437 367.418L236.444 375.102C236.39 375.115 236.335 375.122 236.28 375.122Z" fill="#21252A"/>
<path d="M240.618 379.46C240.324 379.46 240.057 379.264 239.98 378.967C239.887 378.614 240.099 378.254 240.452 378.162L274.288 369.362C274.644 369.265 275.002 369.482 275.094 369.834C275.186 370.187 274.974 370.547 274.621 370.639L240.785 379.439C240.729 379.454 240.672 379.46 240.618 379.46Z" fill="#21252A"/>
<path d="M246.444 385.286C246.155 385.286 245.891 385.095 245.808 384.804C245.71 384.452 245.915 384.088 246.266 383.989L282.457 373.826C282.8 373.728 283.171 373.933 283.27 374.283C283.368 374.635 283.164 374.999 282.812 375.098L246.621 385.261C246.563 385.277 246.502 385.286 246.444 385.286Z" fill="#21252A"/>
<g opacity="0.35">
<path opacity="0.35" d="M301.262 379.677V403.374L165.792 445.388L170.559 420.356L300.867 379.48L301.262 379.677Z" fill="#21252A"/>
</g>
<path d="M192.09 344.019C192.09 346.577 187.77 348.651 182.44 348.651C177.11 348.651 172.789 346.577 172.789 344.019C172.789 341.46 177.11 339.386 182.44 339.386C187.77 339.386 192.09 341.461 192.09 344.019Z" fill="#EB7DFF"/>
<path d="M216.726 347.176C216.953 349.724 212.834 352.174 207.525 352.647C202.216 353.12 197.728 351.438 197.501 348.89C197.274 346.342 201.393 343.892 206.702 343.419C212.011 342.946 216.499 344.628 216.726 347.176Z" fill="#EB7DFF"/>
<path d="M184.751 357.074C184.751 359.632 180.43 361.706 175.101 361.706C169.771 361.706 165.45 359.632 165.45 357.074C165.45 354.516 169.771 352.442 175.101 352.442C180.43 352.442 184.751 354.516 184.751 357.074Z" fill="#EB7DFF"/>
<path d="M199.538 365.247C204.868 365.247 209.188 363.173 209.188 360.615C209.188 358.057 204.868 355.983 199.538 355.983C194.208 355.983 189.888 358.057 189.888 360.615C189.888 363.173 194.208 365.247 199.538 365.247Z" fill="#EB7DFF"/>
<path d="M184.371 399.424C184.729 401.041 181.264 403.181 176.633 404.205C172.002 405.228 167.957 404.747 167.6 403.13C167.243 401.512 170.708 399.372 175.339 398.348C179.97 397.325 184.014 397.806 184.371 399.424Z" fill="#A5DBFF"/>
<path d="M211.146 392.364C211.504 393.981 208.039 396.122 203.408 397.145C198.776 398.169 194.732 397.687 194.375 396.07C194.018 394.453 197.483 392.312 202.114 391.289C206.745 390.265 210.789 390.747 211.146 392.364Z" fill="#A5DBFF"/>
<path d="M174.927 387.792C175.284 389.409 171.819 391.549 167.188 392.573C162.557 393.596 158.513 393.115 158.156 391.497C157.798 389.88 161.263 387.739 165.894 386.716C170.525 385.693 174.57 386.174 174.927 387.792Z" fill="#A5DBFF"/>
<path d="M202.738 382.032C203.096 383.649 199.631 385.79 195 386.813C190.368 387.837 186.324 387.355 185.967 385.738C185.61 384.121 189.075 381.98 193.706 380.956C198.337 379.933 202.381 380.414 202.738 382.032Z" fill="#A5DBFF"/>
<path d="M69.0767 329.135L35.9073 217.386L147.657 215.016L180.826 314.13L69.0767 329.135Z" fill="#A5DBFF"/>
<path d="M71.7422 329.135L38.5727 217.386L150.322 215.016L183.492 314.13L71.7422 329.135Z" fill="#FEE8DA"/>
<path d="M120.843 249.038L138.063 247.663C141.261 247.407 143.349 251.117 141.597 253.941L132.161 269.145L138.727 285.934C139.947 289.053 137.235 292.287 134.139 291.407L117.467 286.673L104.305 298.424C101.86 300.607 98.0962 298.896 97.9347 295.528L97.0665 277.399L82.3666 267.872C79.6365 266.103 80.0213 261.811 83.0183 260.609L99.1536 254.139L103.23 236.5C103.987 233.223 107.989 232.282 110.003 234.906L120.843 249.038Z" fill="#FFE400"/>
<path d="M108.329 265.421C108.271 267.25 106.812 268.684 105.072 268.622C103.333 268.561 101.969 267.028 102.027 265.199C102.086 263.37 103.543 261.936 105.284 261.998C107.024 262.059 108.387 263.592 108.329 265.421Z" fill="#21252A"/>
<path d="M124.208 262.043C124.15 263.873 122.692 265.306 120.952 265.245C119.212 265.184 117.849 263.651 117.907 261.821C117.966 259.992 119.424 258.559 121.164 258.62C122.904 258.681 124.267 260.214 124.208 262.043Z" fill="#21252A"/>
<path d="M114.628 271.979C111.862 271.979 110.135 266.674 109.935 266.028C109.841 265.722 110.012 265.398 110.317 265.303C110.629 265.206 110.947 265.379 111.044 265.685C111.5 267.16 113.207 271.263 114.925 270.777C116.663 270.294 116.159 266.197 115.847 264.799C115.777 264.487 115.973 264.177 116.286 264.106C116.606 264.039 116.909 264.233 116.979 264.545C117.127 265.207 118.343 271.032 115.235 271.895C115.028 271.952 114.825 271.979 114.628 271.979Z" fill="#21252A"/>
<g opacity="0.19">
<path opacity="0.19" d="M71.7422 329.135L150.322 215.016L183.492 314.13L71.7422 329.135Z" fill="#FFA7BB"/>
</g>
<path d="M222.488 239.436H178.289C178.362 234.572 179.411 229.708 181.362 225.266C182.731 222.165 185.542 218.815 188.804 219.718C190.769 220.257 191.978 222.194 192.852 224.029C194.396 227.233 195.517 230.64 196.187 234.121C197.745 226.024 199.624 217.316 205.77 211.797C207.386 210.355 209.338 209.161 211.493 208.986C214.653 208.753 217.638 210.806 219.328 213.486C221.018 216.165 221.614 219.369 222.023 222.515C222.735 228.121 222.881 233.8 222.488 239.436Z" fill="#FEE8DA"/>
<path d="M70.041 401.303H25.8421C25.9148 396.439 26.9636 391.575 28.915 387.133C30.2837 384.031 33.0946 380.682 36.3568 381.585C38.323 382.124 39.5314 384.06 40.4051 385.896C41.9489 389.099 43.0698 392.507 43.74 395.988C45.2981 387.891 47.1767 379.183 53.3225 373.663C54.9391 372.222 56.8905 371.028 59.046 370.853C62.2065 370.62 65.1918 372.674 66.8812 375.353C68.5706 378.032 69.1674 381.236 69.5755 384.381C70.2889 389.987 70.4344 395.667 70.041 401.303Z" fill="#FEE8DA"/>
</svg>
