<?xml version="1.0" encoding="UTF-8"?>
<!-- Generator: Adobe Illustrator 25.4.1, SVG Export Plug-In . SVG Version: 6.00 Build 0)  -->
<svg xmlns="http://www.w3.org/2000/svg" xmlns:xlink="http://www.w3.org/1999/xlink" version="1.1" id="Capa_1" x="0px" y="0px" viewBox="35 0 441.61 512" style="enable-background:new 0 0 441.61 512;" xml:space="preserve" width="441.61" height="512">
<g>
	<g>
		<path style="fill:#FFFFFF;" d="M474.79,496.972c0,8.264-6.7,14.964-14.964,14.964H50.153c-8.264,0-14.964-6.7-14.964-14.964    c0,0,0-283.822,0-283.823c0.002-23.887,4.375-47.937,12.521-70.377c5.124-14.168,11.81-27.817,19.892-40.623l0.282-29.235    c0.08-8.208,6.756-14.821,14.965-14.821c0,0,21.508,0,21.509,0c0,0,13.07-11.16,16.066-13.427    c47.965-36.278,111.118-51.4,170.574-41.885c42.332,6.775,83.134,26.092,114.607,55.311h21.1c8.203,0,14.877,6.605,14.964,14.806    l0.304,29.027c11.065,17.675,19.541,36.86,25.225,57.092c9.555,34.008,10.169,69.96,9.234,105.034L474.79,496.972z"/>
	</g>
	<g>
		<g>
			<path style="fill:#512A8D;" d="M459.85,322.163l-0.025,174.808H445.46l-189.492-54.867L68.393,496.972H50.152V217.887     c0,0,9.544-10.665,9.889-16.424c0.32-5.33-7.969-14.502-7.969-14.502c0.524-3.791,1.147-7.532,1.896-11.248     c1.895-9.552,4.539-18.83,7.806-27.834c5.287-14.615,12.271-28.432,20.751-41.252c19.612-29.648,47.562-54.437,79.66-70.258     c23.25-11.459,48.619-18.609,74.447-20.825c0,0,11.875,13.602,18.06,13.602c6.934,0,20.822-13.427,20.822-13.427     c37.255,3.65,73.688,17.637,103.728,39.98c35.55,26.441,61.582,64.765,73.55,107.369c5.596,19.923,7.906,40.842,8.654,61.479     c0.501,13.029,0.372,26.072,0.028,39.107c-0.154,5.838-0.35,11.675-0.552,17.508c0,0-12.206,14.709-12.412,22.017     C448.332,309.535,459.85,322.163,459.85,322.163"/>
		</g>
		<g>
			<g>
				<rect x="378.729" y="160.772" style="fill:#FFA7BB;" width="55.188" height="55.188"/>
			</g>
			<g>
				<rect x="74.349" y="261.383" style="fill:#FFA7BB;" width="55.188" height="55.188"/>
			</g>
			<g>
				<path style="fill:#FFE400;" d="M460.923,281.161c-0.474,13.842-0.998,27.559-1.072,41.002l-69.584-0.374L460.923,281.161z"/>
			</g>
			<g>
				<path style="fill:#EB7DFF;" d="M107.74,197.286l-57.588,20.601v-4.739c0.05-8.879,0.698-17.608,1.92-26.188L107.74,197.286z"/>
			</g>
			<g>
				<path style="fill:#A5DBFF;" d="M283.072,24.697l-37.336,43.047l-9.104-52.201c6.061-0.524,12.171-0.798,18.356-0.798      c6.934,0,13.792,0.324,20.526,0.973L283.072,24.697z"/>
			</g>
			<g>
				<g>
					<circle style="fill:#FEE8DA;" cx="326.089" cy="51.458" r="10.188"/>
				</g>
				<g>
					<circle style="fill:#FEE8DA;" cx="180.903" cy="51.458" r="10.188"/>
				</g>
				<g>
					<circle style="fill:#FEE8DA;" cx="79.655" cy="341.193" r="10.188"/>
				</g>
				<g>
					<circle style="fill:#FEE8DA;" cx="425.427" cy="259.048" r="10.188"/>
				</g>
			</g>
		</g>
		<g>
			<g>
				<polygon style="fill:#EB7DFF;" points="450.897,390.401 391.887,337.976 391.887,321.789 391.887,320.866 391.887,215.966       391.887,186.936 391.887,186.836 421.467,160.773 427.552,155.411 427.054,106.378 426.705,73.057 399.694,73.057       110.309,73.057 82.849,73.057 82.525,106.627 82.001,158.828 122.754,184.292 122.704,185.215 118.589,261.383 115.596,316.577       114.249,341.368 64.368,390.401 286.396,448.101     "/>
			</g>
			<g>
				<polygon style="fill:#9F06C8;" points="427.552,155.402 391.887,186.827 391.996,186.933 122.704,185.206 122.754,184.283       82.001,158.819     "/>
			</g>
			<g>
				<polygon style="fill:#9F06C8;" points="445.46,496.972 450.897,390.401 64.368,390.401 68.393,496.972     "/>
			</g>
			<g style="opacity:0.25;">
				<polygon style="fill:#9F06C8;" points="450.897,390.401 391.887,337.967 114.249,341.359 64.368,390.401     "/>
			</g>
			<g>
				<g>
					<rect x="129.324" y="195.529" style="fill:#21252A;" width="252.165" height="136.271"/>
				</g>
				<g>
					<g>
						<polygon style="fill:#A5DBFF;" points="362.666,323.52 144.984,322.588 141.847,309.089 142.286,202.534 368.527,202.534         368.541,309.089       "/>
					</g>
					<g>
						<g>
							<circle style="fill:#FEE8DA;" cx="161.031" cy="214.474" r="4.962"/>
						</g>
						<g>
							<circle style="fill:#FEE8DA;" cx="176.764" cy="214.474" r="4.962"/>
						</g>
						<g>
							<circle style="fill:#FEE8DA;" cx="192.497" cy="214.474" r="4.962"/>
						</g>
					</g>
					<g>
						<rect x="141.847" y="309.089" style="fill:#9F06C8;" width="226.694" height="16.132"/>
					</g>
					<g>
						<g>
							<rect x="174.111" y="282.768" style="fill:#FEE8DA;" width="40.329" height="10.613"/>
						</g>
						<g>
							<rect x="301.467" y="249.656" style="fill:#FEE8DA;" width="40.329" height="10.613"/>
						</g>
						<g>
							<circle style="fill:#FFE400;" cx="194.063" cy="257.297" r="12.736"/>
						</g>
						<g>
							<circle style="fill:#FFE400;" cx="321.419" cy="232.675" r="12.736"/>
						</g>
					</g>
				</g>
			</g>
			<g>
				<g>
					<g>
						<g>

								<ellipse transform="matrix(0.7071 -0.7071 0.7071 0.7071 -183.9144 207.4936)" style="fill:#512A8D;" cx="158.51" cy="325.751" rx="17.724" ry="17.724"/>
						</g>
						<g>
							<path style="fill:#512A8D;" d="M158.404,368.919c-0.689,0-1.247-0.558-1.247-1.247V329.04c0-0.689,0.558-1.247,1.247-1.247         s1.247,0.558,1.247,1.247v38.633C159.65,368.362,159.093,368.919,158.404,368.919z"/>
						</g>
						<g>
							<path style="fill:#512A8D;" d="M157.767,373.603c-7.674,0-19.09-1.239-19.09-4.658c0-3.416,11.417-4.656,19.09-4.656         s19.09,1.239,19.09,4.656C176.857,372.364,165.44,373.603,157.767,373.603z M157.767,365.536         c-11.715,0-17.844,2.219-17.844,3.409c0,1.19,6.128,3.412,17.844,3.412s17.844-2.221,17.844-3.412         C175.61,367.755,169.482,365.536,157.767,365.536z"/>
						</g>
					</g>
					<g>
						<g>

								<ellipse transform="matrix(0.229 -0.9734 0.9734 0.229 -44.0037 595.9435)" style="fill:#512A8D;" cx="354.213" cy="325.751" rx="17.724" ry="17.724"/>
						</g>
						<g>
							<path style="fill:#512A8D;" d="M354.107,368.919c-0.689,0-1.247-0.558-1.247-1.247V329.04c0-0.689,0.558-1.247,1.247-1.247         s1.247,0.558,1.247,1.247v38.633C355.353,368.362,354.796,368.919,354.107,368.919z"/>
						</g>
						<g>
							<path style="fill:#512A8D;" d="M353.471,373.603c-7.674,0-19.09-1.239-19.09-4.658c0-3.416,11.417-4.656,19.09-4.656         s19.09,1.239,19.09,4.656C372.561,372.364,361.144,373.603,353.471,373.603z M353.471,365.536         c-11.715,0-17.844,2.219-17.844,3.409c0,1.19,6.128,3.412,17.844,3.412c11.715,0,17.844-2.221,17.844-3.412         C371.314,367.755,365.186,365.536,353.471,365.536z"/>
						</g>
					</g>
					<g>
						<g>
							<g>
								<path style="fill:#A5DBFF;" d="M236.94,352.602c0,1.758-4.467,3.184-9.976,3.184c-5.51,0-9.976-1.425-9.976-3.184          s4.467-3.184,9.976-3.184C232.473,349.418,236.94,350.844,236.94,352.602z"/>
							</g>
							<g>
								<ellipse style="fill:#A5DBFF;" cx="256.68" cy="352.602" rx="9.976" ry="3.184"/>
							</g>
							<g>
								<path style="fill:#A5DBFF;" d="M296.373,352.602c0,1.758-4.467,3.184-9.976,3.184c-5.51,0-9.976-1.425-9.976-3.184          s4.467-3.184,9.976-3.184C291.906,349.418,296.373,350.844,296.373,352.602z"/>
							</g>
						</g>
						<g>
							<g>
								<ellipse style="fill:#9F06C8;" cx="203.827" cy="367.672" rx="14.434" ry="4.67"/>
							</g>
							<g>
								<ellipse style="fill:#9F06C8;" cx="238.213" cy="367.672" rx="14.434" ry="4.67"/>
							</g>
						</g>
						<g>
							<g>
								<ellipse style="fill:#9F06C8;" cx="277.694" cy="367.672" rx="14.434" ry="4.67"/>
							</g>
							<g>
								<ellipse style="fill:#9F06C8;" cx="312.08" cy="367.672" rx="14.434" ry="4.67"/>
							</g>
						</g>
					</g>
				</g>
				<g>
					<g>
						<path style="fill:#512A8D;" d="M201.704,454.048h-21.65c-0.344,0-0.623-0.279-0.623-0.623v-43.724        c0-0.344,0.279-0.623,0.623-0.623h21.65c0.344,0,0.623,0.279,0.623,0.623v43.724        C202.327,453.77,202.049,454.048,201.704,454.048z M180.677,452.802h20.404v-42.478h-20.404V452.802z"/>
					</g>
					<g>
						<path style="fill:#512A8D;" d="M196.61,419.237H184.3c-0.344,0-0.623-0.279-0.623-0.623c0-0.344,0.279-0.623,0.623-0.623        h12.311c0.344,0,0.623,0.279,0.623,0.623C197.234,418.958,196.955,419.237,196.61,419.237z"/>
					</g>
					<g>
						<g>
							<path style="fill:#512A8D;" d="M328.212,454.048h-21.651c-0.344,0-0.623-0.279-0.623-0.623v-43.724         c0-0.344,0.279-0.623,0.623-0.623h21.651c0.344,0,0.623,0.279,0.623,0.623v43.724         C328.835,453.77,328.557,454.048,328.212,454.048z M307.184,452.802h20.405v-42.478h-20.405V452.802z"/>
						</g>
						<g>
							<path style="fill:#512A8D;" d="M323.966,419.237h-12.311c-0.344,0-0.623-0.279-0.623-0.623c0-0.344,0.279-0.623,0.623-0.623         h12.311c0.344,0,0.623,0.279,0.623,0.623C324.59,418.958,324.311,419.237,323.966,419.237z"/>
						</g>
					</g>
				</g>
			</g>
			<g>
				<g>
					<polygon style="fill:#FEE8DA;" points="395.942,109.444 406.328,126.122 406.328,140.139 101.953,140.139 101.953,126.122        108.219,99.541      "/>
				</g>
				<g>
					<polygon style="fill:#FFE400;" points="406.328,89.834 406.328,100.807 255.194,110.694 101.953,100.807 101.953,89.834             "/>
				</g>
				<g>
					<polygon style="fill:#9F06C8;" points="406.328,100.807 406.328,113.677 296.109,120.58 101.953,113.253 101.953,102.479        101.953,100.807      "/>
				</g>
				<g>
					<rect x="101.953" y="113.253" style="fill:#A5DBFF;" width="304.375" height="12.869"/>
				</g>
			</g>
		</g>
	</g>
</g>















</svg>
