<?xml version="1.0" encoding="UTF-8"?>
<!-- Generator: Adobe Illustrator 25.4.1, SVG Export Plug-In . SVG Version: 6.00 Build 0)  -->
<svg xmlns="http://www.w3.org/2000/svg" xmlns:xlink="http://www.w3.org/1999/xlink" version="1.1" id="Capa_1" x="0px" y="0px" viewBox="0 0 512 512" style="enable-background:new 0 0 512 512;" xml:space="preserve" width="512" height="512">
<g>
	<g>
		<path style="fill:#FFFFFF;" d="M24.273,497.828c0,7.827,6.346,14.172,14.172,14.172h410.091c7.826,0,14.172-6.345,14.172-14.172    v-46.354l34.715-10.767c5.931-1.84,9.974-7.326,9.974-13.535v-38.435c0-5.368-3.033-10.275-7.833-12.676l-36.855-18.429v-122.74    c0-58.532-22.797-113.578-64.192-155c-20.047-20.047-43.282-35.745-69.169-46.747C325.61,13.711,312.566,0,296.544,0    c-1.786,0-3.566,0-5.352,0c-10.682,0-20.363,6.277-26.623,16.687c-13.167-1.263-26.514-1.337-39.693-0.22    c-6.26-8.644-15.106-13.707-24.655-13.707c-1.788,0-3.562,0-5.349,0c-14.504,0-26.688,11.187-31.601,28.102    c-32.288,12.688-61.361,33.157-84.289,59.182c0,0-36.636,0.17-36.636,0.17c-4.738,0-9.162,2.368-11.792,6.31L12.675,123.34    c-8.143,12.226-10.241,27.243-5.764,41.182l17.849,55.8L24.273,497.828z"/>
	</g>
	<g>
		<g>
			<path style="fill:#A5DBFF;" d="M448.535,234.891v30.892l-2.431,2.747l2.431,5.493v223.805H38.445V348.639l3.517-6.316     l-3.517-4.009V234.891c0-62.333,27.824-118.171,71.71-155.75c1.205-1.039,2.409-2.055,3.637-3.047     c35.336-28.911,80.497-46.248,129.698-46.248c56.617,0,107.896,22.959,145.003,60.066     C425.576,127.018,448.535,178.273,448.535,234.891z"/>
		</g>
		<g>
			<g>
				<g>
					<path style="fill:#EB7DFF;" d="M448.535,265.786v8.314c-0.095-0.094-0.189-0.189-0.26-0.307l-8.976-13.18l-14.007,7.629       c-1.087,0.59-2.409,0.26-3.094-0.732l-8.975-13.18l-13.983,7.629c-1.063,0.591-2.409,0.26-3.094-0.732l-8.976-13.18       l-13.983,7.629c-1.063,0.567-2.409,0.26-3.094-0.756l-8.975-13.156l-13.983,7.629c-1.063,0.567-2.409,0.26-3.071-0.756       l-10.18-14.928c-0.732-1.063-0.472-2.551,0.614-3.283c1.087-0.732,2.551-0.449,3.283,0.638l8.975,13.156l13.983-7.629       c1.063-0.567,2.409-0.26,3.094,0.756l8.976,13.156l13.983-7.629c1.063-0.567,2.386-0.26,3.07,0.756l8.976,13.156l14.007-7.629       c1.063-0.567,2.386-0.26,3.071,0.756l8.976,13.157l14.006-7.606c1.087-0.59,2.409-0.26,3.094,0.732L448.535,265.786z"/>
				</g>
			</g>
			<g>
				<g>
					<path style="fill:#EB7DFF;" d="M170.221,99.147c-0.59,0.402-1.275,0.496-1.889,0.355c-0.567-0.142-1.063-0.473-1.394-0.969       l-8.999-13.18l-14.007,7.629c-1.063,0.59-2.409,0.26-3.094-0.732l-8.975-13.18l-13.983,7.629       c-1.063,0.567-2.409,0.26-3.071-0.756l-4.653-6.803c1.205-1.039,2.409-2.055,3.637-3.047l3.708,5.433l13.983-7.629       c1.063-0.567,2.386-0.26,3.071,0.756l8.999,13.156l14.007-7.606c1.063-0.59,2.386-0.26,3.071,0.732l10.204,14.928       C171.567,96.95,171.284,98.414,170.221,99.147z"/>
				</g>
			</g>
			<g>
				<g>
					<path style="fill:#EB7DFF;" d="M157.234,475.314c-0.549-0.133-1.054-0.462-1.397-0.965l-8.99-13.171l-14.009,7.621       c-1.066,0.581-2.397,0.259-3.081-0.743l-8.983-13.168l-13.986,7.625c-1.065,0.581-2.398,0.26-3.081-0.742l-8.979-13.167       l-13.991,7.623c-1.065,0.58-2.397,0.259-3.081-0.744l-8.975-13.165l-13.991,7.623c-1.065,0.581-2.397,0.259-3.081-0.743       l-10.174-14.93c-0.736-1.078-0.458-2.547,0.621-3.282c1.079-0.733,2.545-0.457,3.281,0.622l8.97,13.163l13.991-7.622       c1.065-0.581,2.397-0.259,3.081,0.743l8.975,13.165l13.991-7.623c1.065-0.581,2.398-0.26,3.081,0.742l8.979,13.167       l13.986-7.625c1.065-0.58,2.398-0.26,3.081,0.742l8.983,13.169l14.009-7.621c1.065-0.581,2.397-0.259,3.081,0.743       l10.194,14.935c0.735,1.077,0.458,2.547-0.619,3.283C158.545,475.361,157.86,475.465,157.234,475.314z"/>
				</g>
			</g>
			<g>
				<g>
					<g>
						
							<rect x="366.923" y="185.04" transform="matrix(0.866 -0.5 0.5 0.866 -42.7182 219.4997)" style="fill:#FFE400;" width="42.616" height="8.845"/>
					</g>
					<g>
						<polygon style="fill:#FFE400;" points="54.294,339.433 38.445,348.574 38.445,338.37 49.877,331.78       "/>
					</g>
					<g>
						
							<rect x="398.283" y="467.274" transform="matrix(0.866 -0.5 0.5 0.866 -179.6341 272.9917)" style="fill:#FFE400;" width="42.616" height="8.845"/>
					</g>
					<g>
						
							<rect x="253.548" y="185.04" transform="matrix(0.866 -0.5 0.5 0.866 -57.9078 162.8116)" style="fill:#FFE400;" width="42.616" height="8.845"/>
					</g>
					<g>
						
							<rect x="329.132" y="309.674" transform="matrix(0.866 -0.5 0.5 0.866 -110.0981 217.3014)" style="fill:#FFE400;" width="42.616" height="8.845"/>
					</g>
					<g>
						<polygon style="fill:#FFE400;" points="216.327,486.184 196.155,497.828 178.464,497.828 211.887,478.531       "/>
					</g>
				</g>
				<g>
					<g>
						<circle style="fill:#FEE8DA;" cx="427.632" cy="220.018" r="9.247"/>
					</g>
					<g>
						<circle style="fill:#FEE8DA;" cx="427.632" cy="318.117" r="9.247"/>
					</g>
					<g>
						<path style="fill:#FEE8DA;" d="M181.582,430.286c0,5.107-4.14,9.247-9.247,9.247c-5.107,0-9.247-4.14-9.247-9.247        c0-5.107,4.14-9.247,9.247-9.247C177.442,421.039,181.582,425.179,181.582,430.286z"/>
					</g>
					<g>
						<circle style="fill:#FEE8DA;" cx="66.196" cy="474.913" r="9.247"/>
					</g>
					<g>
						<circle style="fill:#FEE8DA;" cx="329.533" cy="84.128" r="9.247"/>
					</g>
				</g>
			</g>
		</g>
		<g>
			<g>
				<g>
					<ellipse style="fill:#EB7DFF;" cx="194.871" cy="47.367" rx="19.733" ry="30.435"/>
				</g>
				<g>
					<ellipse style="fill:#FFE400;" cx="200.222" cy="47.367" rx="19.733" ry="30.435"/>
				</g>
				<g>
					<path style="fill:#EB7DFF;" d="M200.598,75.321c-9.882,0-17.92-12.54-17.92-27.954s8.039-27.954,17.92-27.954       c9.882,0,17.92,12.54,17.92,27.954S210.48,75.321,200.598,75.321z M200.598,20.384c-9.344,0-16.947,12.105-16.947,26.983       s7.603,26.983,16.947,26.983c9.344,0,16.947-12.105,16.947-26.983S209.942,20.384,200.598,20.384z"/>
				</g>
			</g>
			<g>
				<g>
					<ellipse style="fill:#EB7DFF;" cx="247.924" cy="94.148" rx="19.733" ry="30.435"/>
				</g>
				<g>
					<ellipse style="fill:#FFE400;" cx="253.275" cy="94.148" rx="19.733" ry="30.435"/>
				</g>
				<g>
					<path style="fill:#EB7DFF;" d="M253.651,122.103c-9.882,0-17.92-12.54-17.92-27.955c0-15.414,8.039-27.954,17.92-27.954       s17.92,12.54,17.92,27.954C271.571,109.563,263.532,122.103,253.651,122.103z M253.651,67.165       c-9.344,0-16.947,12.105-16.947,26.983c0,14.879,7.603,26.984,16.947,26.984s16.947-12.105,16.947-26.984       C270.598,79.27,262.995,67.165,253.651,67.165z"/>
				</g>
			</g>
			<g>
				<g>
					<ellipse style="fill:#EB7DFF;" cx="291.193" cy="44.608" rx="19.733" ry="30.435"/>
				</g>
				<g>
					<ellipse style="fill:#FFE400;" cx="296.544" cy="44.608" rx="19.733" ry="30.435"/>
				</g>
				<g>
					<path style="fill:#EB7DFF;" d="M296.921,72.562c-9.882,0-17.92-12.54-17.92-27.955c0-15.414,8.039-27.954,17.92-27.954       c9.882,0,17.92,12.54,17.92,27.954C314.841,60.022,306.803,72.562,296.921,72.562z M296.921,17.624       c-9.344,0-16.947,12.105-16.947,26.983c0,14.879,7.603,26.984,16.947,26.984c9.344,0,16.947-12.105,16.947-26.984       C313.868,29.729,306.265,17.624,296.921,17.624z"/>
				</g>
			</g>
		</g>
		<g>
			<g>
				<g>
					<path style="fill:#512A8D;" d="M320.304,304.199l-207.07,33.359l-12.605,2.502l-23.705-3.198L20.409,160.204       c-3.142-9.783-1.637-20.45,4.064-29.01l17.873-26.809h0.169l207.342-0.959L320.304,304.199z"/>
				</g>
				<g>
					<path style="fill:#21252A;" d="M113.234,337.558l-12.605,2.502l-23.705-3.198L20.409,160.204       c-3.142-9.783-1.637-20.45,4.064-29.01l17.873-26.809h0.169L113.234,337.558z"/>
				</g>
			</g>
			<g>
				<polygon style="fill:#512A8D;" points="493.225,388.736 493.225,427.171 273.504,495.313 272.262,495.69 108.314,384.256       111.521,335.588 321.59,302.909 492.585,388.416     "/>
			</g>
			<g>
				<polygon style="fill:#21252A;" points="281.236,454.714 273.504,495.313 272.262,495.69 108.954,384.897 111.521,335.588           "/>
			</g>
			<g>
				<path style="fill:#21252A;" d="M111.518,336.53c-0.454,0-0.853-0.332-0.927-0.796c-0.081-0.513,0.272-0.994,0.784-1.075      l208.264-32.549c0.51-0.081,0.994,0.272,1.075,0.784c0.081,0.513-0.272,0.994-0.784,1.075l-208.264,32.549      C111.617,336.526,111.566,336.53,111.518,336.53z"/>
			</g>
			<g>
				<g>
					<g>
						
							<rect x="216.065" y="328.932" transform="matrix(0.9918 -0.1278 0.1278 0.9918 -42.7433 30.6008)" style="fill:#21252A;" width="2.14" height="39.029"/>
					</g>
					<g>
						<path style="fill:#21252A;" d="M194.157,368.852l23.233-14.575l28.214,12.196c2.491,0.838,3.081,4.144,0.983,5.726        c-6.883,5.187-22.847,12.508-52.184,2.824C191.523,374.073,191.367,370.039,194.157,368.852z"/>
					</g>
					<g>
						<g>
							<path style="fill:#EB7DFF;" d="M241.622,320.874c1.689,8.438-10.142,17.92-26.425,21.18         c-16.283,3.26-30.853-0.938-32.542-9.376c-1.689-8.438,10.142-17.92,26.425-21.18         C225.363,308.238,239.933,312.436,241.622,320.874z"/>
						</g>
						<g>
							<path style="fill:#FEE8DA;" d="M211.631,314.531c-1.54,0.879-2.602,2.595-1.318,3.835c0.637,0.615,1.668,0.921,2.645,1.177         c3.687,0.967,7.468,1.686,11.278,2.146c1.609,0.194,3.255,0.341,4.808,0.121c1.553-0.22,3.02-0.862,3.648-1.908         c1.055-1.758-0.529-3.921-2.379-5.488C226.415,311.114,215.553,312.294,211.631,314.531z"/>
						</g>
					</g>
				</g>
				<g>
					<g>
						<path style="fill:#21252A;" d="M387.83,381.348c-0.477,0-0.913-0.321-1.038-0.805c-0.145-0.572,0.201-1.156,0.773-1.302        l48.647-12.463c0.561-0.149,1.156,0.197,1.303,0.772c0.145,0.572-0.201,1.156-0.773,1.302l-48.647,12.463        C388.008,381.337,387.918,381.348,387.83,381.348z"/>
					</g>
					<g>
						<path style="fill:#21252A;" d="M394.866,388.384c-0.477,0-0.911-0.318-1.036-0.8c-0.15-0.573,0.194-1.157,0.766-1.306        l54.88-14.273c0.577-0.156,1.158,0.195,1.306,0.766c0.15,0.573-0.194,1.157-0.766,1.306l-54.88,14.273        C395.045,388.374,394.953,388.384,394.866,388.384z"/>
					</g>
					<g>
						<path style="fill:#21252A;" d="M404.314,397.833c-0.468,0-0.897-0.309-1.031-0.782c-0.159-0.57,0.173-1.16,0.743-1.321        l58.699-16.484c0.556-0.159,1.158,0.173,1.319,0.742c0.159,0.57-0.173,1.16-0.743,1.321l-58.699,16.484        C404.507,397.819,404.408,397.833,404.314,397.833z"/>
					</g>
				</g>
			</g>
			<g style="opacity:0.35;">
				<polygon style="fill:#21252A;" points="493.225,388.736 493.225,427.171 273.504,495.313 281.236,454.714 492.585,388.416           "/>
			</g>
			<g>
				<g>
					<g>
						<path style="fill:#EB7DFF;" d="M316.157,330.901c0,4.149-7.007,7.513-15.652,7.513c-8.644,0-15.652-3.364-15.652-7.513        c0-4.15,7.008-7.513,15.652-7.513C309.15,323.388,316.157,326.752,316.157,330.901z"/>
					</g>
					<g>
						<path style="fill:#EB7DFF;" d="M356.114,336.022c0.369,4.133-6.312,8.106-14.923,8.873c-8.61,0.768-15.889-1.96-16.257-6.093        c-0.368-4.133,6.312-8.106,14.922-8.874C348.467,329.161,355.746,331.889,356.114,336.022z"/>
					</g>
				</g>
				<g>
					<g>
						<path style="fill:#EB7DFF;" d="M304.254,352.076c0,4.149-7.008,7.513-15.652,7.513c-8.644,0-15.652-3.364-15.652-7.513        s7.008-7.513,15.652-7.513C297.246,344.563,304.254,347.927,304.254,352.076z"/>
					</g>
					<g>
						<ellipse style="fill:#EB7DFF;" cx="328.237" cy="357.819" rx="15.652" ry="7.513"/>
					</g>
				</g>
				<g>
					<g>
						<path style="fill:#A5DBFF;" d="M303.638,420.763c0.58,2.623-5.04,6.095-12.551,7.755c-7.511,1.66-14.071,0.879-14.65-1.744        c-0.58-2.623,5.04-6.095,12.551-7.755C296.5,417.359,303.059,418.139,303.638,420.763z"/>
					</g>
					<g>
						<path style="fill:#A5DBFF;" d="M347.065,409.313c0.58,2.623-5.04,6.095-12.551,7.755c-7.512,1.66-14.071,0.879-14.65-1.744        c-0.58-2.623,5.04-6.095,12.551-7.755C339.926,405.909,346.486,406.69,347.065,409.313z"/>
					</g>
				</g>
				<g>
					<g>
						<path style="fill:#A5DBFF;" d="M288.32,401.897c0.58,2.623-5.04,6.095-12.551,7.755c-7.511,1.66-14.071,0.879-14.65-1.745        c-0.58-2.623,5.04-6.095,12.551-7.755C281.181,398.493,287.741,399.273,288.32,401.897z"/>
					</g>
					<g>
						<path style="fill:#A5DBFF;" d="M333.428,392.555c0.58,2.623-5.04,6.095-12.551,7.755c-7.512,1.66-14.071,0.879-14.65-1.744        c-0.58-2.623,5.04-6.095,12.551-7.755C326.289,389.151,332.849,389.932,333.428,392.555z"/>
					</g>
				</g>
			</g>
			<g>
				<g>
					<g>
						<polygon style="fill:#A5DBFF;" points="116.64,306.761 62.842,125.513 244.09,121.67 297.888,282.424       "/>
					</g>
					<g>
						<polygon style="fill:#FEE8DA;" points="120.963,306.761 67.165,125.513 248.413,121.67 302.212,282.424       "/>
					</g>
				</g>
				<g>
					<g>
						<g>
							<path style="fill:#FFE400;" d="M200.601,176.85l27.929-2.23c5.187-0.415,8.574,5.603,5.732,10.183l-15.304,24.659         l10.649,27.231c1.978,5.058-2.42,10.303-7.442,8.877l-27.04-7.679l-21.348,19.06c-3.965,3.54-10.07,0.765-10.332-4.697         l-1.408-29.405l-23.842-15.451c-4.428-2.87-3.804-9.831,1.057-11.78l26.17-10.494l6.612-28.61         c1.228-5.314,7.719-6.841,10.985-2.584L200.601,176.85z"/>
						</g>
						<g>
							<g>
								<path style="fill:#21252A;" d="M180.304,203.422c-0.095,2.967-2.46,5.292-5.282,5.192c-2.822-0.099-5.034-2.585-4.939-5.552          c0.095-2.967,2.459-5.292,5.282-5.191C178.187,197.97,180.398,200.455,180.304,203.422z"/>
							</g>
							<g>
								<path style="fill:#21252A;" d="M206.059,197.944c-0.094,2.967-2.459,5.291-5.281,5.192          c-2.822-0.099-5.034-2.585-4.939-5.552c0.095-2.967,2.46-5.292,5.282-5.192          C203.943,192.491,206.154,194.977,206.059,197.944z"/>
							</g>
						</g>
					</g>
					<g>
						<path style="fill:#21252A;" d="M190.52,214.059c-4.486,0-7.287-8.605-7.612-9.652c-0.152-0.496,0.125-1.023,0.62-1.176        c0.507-0.158,1.022,0.123,1.179,0.62c0.74,2.391,3.508,9.047,6.295,8.258c2.819-0.783,2.002-7.429,1.495-9.695        c-0.113-0.507,0.205-1.01,0.713-1.124c0.519-0.11,1.01,0.206,1.123,0.712c0.24,1.073,2.212,10.521-2.828,11.921        C191.169,214.015,190.839,214.059,190.52,214.059z"/>
					</g>
				</g>
				<g style="opacity:0.19;">
					<polygon style="fill:#FFA7BB;" points="120.963,306.761 248.413,121.67 302.212,282.424      "/>
				</g>
			</g>
		</g>
		<g>
			<g>
				<path style="fill:#FEE8DA;" d="M365.46,161.277h-71.687c0.118-7.889,1.819-15.778,4.984-22.982      c2.22-5.031,6.779-10.464,12.07-8.999c3.188,0.874,5.149,4.015,6.566,6.992c2.504,5.196,4.322,10.723,5.409,16.369      c2.527-13.133,5.574-27.257,15.542-36.209c2.622-2.338,5.787-4.275,9.283-4.559c5.126-0.378,9.967,2.952,12.708,7.299      c2.74,4.346,3.708,9.542,4.37,14.644C365.861,142.924,366.098,152.136,365.46,161.277z"/>
			</g>
			<g>
				<path style="fill:#FEE8DA;" d="M118.204,423.811H46.517c0.118-7.889,1.819-15.778,4.984-22.982      c2.22-5.031,6.779-10.463,12.07-8.999c3.189,0.874,5.149,4.015,6.566,6.992c2.504,5.196,4.322,10.723,5.409,16.369      c2.527-13.133,5.574-27.257,15.542-36.209c2.622-2.338,5.787-4.275,9.283-4.558c5.126-0.378,9.968,2.953,12.708,7.298      c2.74,4.346,3.708,9.542,4.37,14.644C118.606,405.458,118.842,414.67,118.204,423.811z"/>
			</g>
		</g>
	</g>
</g>















</svg>
