<svg width="1354" height="866" viewBox="0 0 1354 866" fill="none" xmlns="http://www.w3.org/2000/svg">
<path d="M462.649 673.108H451.823V668.738H462.649C464.746 668.738 466.444 668.404 467.743 667.736C469.042 667.068 469.988 666.141 470.582 664.953C471.194 663.766 471.5 662.411 471.5 660.89C471.5 659.498 471.194 658.19 470.582 656.965C469.988 655.741 469.042 654.757 467.743 654.015C466.444 653.254 464.746 652.874 462.649 652.874H453.075V689H447.704V648.477H462.649C465.711 648.477 468.299 649.005 470.415 650.063C472.53 651.121 474.135 652.586 475.229 654.46C476.324 656.316 476.872 658.44 476.872 660.834C476.872 663.432 476.324 665.649 475.229 667.486C474.135 669.323 472.53 670.724 470.415 671.688C468.299 672.635 465.711 673.108 462.649 673.108ZM481.13 674.277V673.637C481.13 671.466 481.445 669.453 482.076 667.597C482.707 665.723 483.616 664.1 484.804 662.727C485.991 661.335 487.429 660.259 489.118 659.498C490.806 658.719 492.699 658.329 494.795 658.329C496.911 658.329 498.812 658.719 500.501 659.498C502.208 660.259 503.655 661.335 504.843 662.727C506.049 664.1 506.967 665.723 507.598 667.597C508.229 669.453 508.544 671.466 508.544 673.637V674.277C508.544 676.448 508.229 678.461 507.598 680.316C506.967 682.172 506.049 683.795 504.843 685.187C503.655 686.56 502.217 687.636 500.529 688.416C498.859 689.176 496.966 689.557 494.851 689.557C492.736 689.557 490.834 689.176 489.146 688.416C487.457 687.636 486.01 686.56 484.804 685.187C483.616 683.795 482.707 682.172 482.076 680.316C481.445 678.461 481.13 676.448 481.13 674.277ZM486.279 673.637V674.277C486.279 675.78 486.455 677.199 486.808 678.535C487.16 679.853 487.689 681.021 488.394 682.042C489.118 683.062 490.018 683.87 491.094 684.463C492.17 685.039 493.422 685.326 494.851 685.326C496.261 685.326 497.495 685.039 498.553 684.463C499.629 683.87 500.52 683.062 501.225 682.042C501.93 681.021 502.458 679.853 502.811 678.535C503.182 677.199 503.368 675.78 503.368 674.277V673.637C503.368 672.152 503.182 670.751 502.811 669.434C502.458 668.098 501.92 666.92 501.197 665.899C500.492 664.86 499.601 664.044 498.525 663.45C497.467 662.856 496.224 662.56 494.795 662.56C493.385 662.56 492.142 662.856 491.066 663.45C490.008 664.044 489.118 664.86 488.394 665.899C487.689 666.92 487.16 668.098 486.808 669.434C486.455 670.751 486.279 672.152 486.279 673.637ZM527.053 685.326C528.277 685.326 529.409 685.076 530.448 684.575C531.487 684.074 532.341 683.387 533.009 682.515C533.677 681.625 534.057 680.613 534.15 679.481H539.048C538.956 681.263 538.353 682.923 537.239 684.463C536.145 685.985 534.707 687.219 532.925 688.165C531.144 689.093 529.187 689.557 527.053 689.557C524.789 689.557 522.813 689.158 521.125 688.36C519.455 687.562 518.063 686.467 516.95 685.076C515.855 683.684 515.029 682.088 514.473 680.289C513.935 678.47 513.666 676.55 513.666 674.527V673.358C513.666 671.336 513.935 669.425 514.473 667.625C515.029 665.807 515.855 664.202 516.95 662.81C518.063 661.418 519.455 660.324 521.125 659.526C522.813 658.728 524.789 658.329 527.053 658.329C529.409 658.329 531.469 658.812 533.231 659.776C534.994 660.723 536.376 662.021 537.378 663.673C538.399 665.306 538.956 667.161 539.048 669.239H534.15C534.057 667.996 533.705 666.874 533.092 665.872C532.499 664.87 531.682 664.072 530.643 663.478C529.623 662.866 528.426 662.56 527.053 662.56C525.476 662.56 524.149 662.875 523.073 663.506C522.015 664.118 521.171 664.953 520.54 666.011C519.928 667.05 519.482 668.209 519.204 669.49C518.944 670.751 518.814 672.041 518.814 673.358V674.527C518.814 675.845 518.944 677.144 519.204 678.424C519.464 679.704 519.9 680.864 520.512 681.903C521.143 682.942 521.987 683.777 523.045 684.408C524.121 685.02 525.457 685.326 527.053 685.326ZM556.889 685.326C558.113 685.326 559.245 685.076 560.284 684.575C561.323 684.074 562.177 683.387 562.845 682.515C563.513 681.625 563.893 680.613 563.986 679.481H568.884C568.792 681.263 568.188 682.923 567.075 684.463C565.98 685.985 564.542 687.219 562.761 688.165C560.98 689.093 559.022 689.557 556.889 689.557C554.625 689.557 552.649 689.158 550.96 688.36C549.291 687.562 547.899 686.467 546.786 685.076C545.691 683.684 544.865 682.088 544.309 680.289C543.771 678.47 543.501 676.55 543.501 674.527V673.358C543.501 671.336 543.771 669.425 544.309 667.625C544.865 665.807 545.691 664.202 546.786 662.81C547.899 661.418 549.291 660.324 550.96 659.526C552.649 658.728 554.625 658.329 556.889 658.329C559.245 658.329 561.305 658.812 563.067 659.776C564.83 660.723 566.212 662.021 567.214 663.673C568.235 665.306 568.792 667.161 568.884 669.239H563.986C563.893 667.996 563.541 666.874 562.928 665.872C562.334 664.87 561.518 664.072 560.479 663.478C559.458 662.866 558.262 662.56 556.889 662.56C555.312 662.56 553.985 662.875 552.909 663.506C551.851 664.118 551.007 664.953 550.376 666.011C549.764 667.05 549.318 668.209 549.04 669.49C548.78 670.751 548.65 672.041 548.65 673.358V674.527C548.65 675.845 548.78 677.144 549.04 678.424C549.3 679.704 549.736 680.864 550.348 681.903C550.979 682.942 551.823 683.777 552.881 684.408C553.957 685.02 555.293 685.326 556.889 685.326ZM580.24 680.845L594.128 658.886H599.305V689H594.128V667.041L580.24 689H575.119V658.886H580.24V680.845ZM613.137 680.845L627.025 658.886H632.202V689H627.025V667.041L613.137 689H608.016V658.886H613.137V680.845ZM624.214 647.976H628.389C628.389 649.423 628.055 650.712 627.387 651.844C626.719 652.958 625.764 653.83 624.521 654.46C623.277 655.091 621.802 655.407 620.095 655.407C617.516 655.407 615.475 654.72 613.972 653.347C612.488 651.956 611.746 650.165 611.746 647.976H615.92C615.92 649.07 616.236 650.035 616.867 650.87C617.498 651.705 618.574 652.123 620.095 652.123C621.58 652.123 622.637 651.705 623.268 650.87C623.899 650.035 624.214 649.07 624.214 647.976ZM652.52 685.326C653.744 685.326 654.876 685.076 655.915 684.575C656.954 684.074 657.808 683.387 658.476 682.515C659.144 681.625 659.524 680.613 659.617 679.481H664.515C664.422 681.263 663.819 682.923 662.706 684.463C661.611 685.985 660.173 687.219 658.392 688.165C656.611 689.093 654.653 689.557 652.52 689.557C650.256 689.557 648.28 689.158 646.591 688.36C644.921 687.562 643.53 686.467 642.417 685.076C641.322 683.684 640.496 682.088 639.939 680.289C639.401 678.47 639.132 676.55 639.132 674.527V673.358C639.132 671.336 639.401 669.425 639.939 667.625C640.496 665.807 641.322 664.202 642.417 662.81C643.53 661.418 644.921 660.324 646.591 659.526C648.28 658.728 650.256 658.329 652.52 658.329C654.876 658.329 656.936 658.812 658.698 659.776C660.461 660.723 661.843 662.021 662.845 663.673C663.866 665.306 664.422 667.161 664.515 669.239H659.617C659.524 667.996 659.171 666.874 658.559 665.872C657.965 664.87 657.149 664.072 656.11 663.478C655.089 662.866 653.893 662.56 652.52 662.56C650.942 662.56 649.616 662.875 648.54 663.506C647.482 664.118 646.638 664.953 646.007 666.011C645.395 667.05 644.949 668.209 644.671 669.49C644.411 670.751 644.281 672.041 644.281 673.358V674.527C644.281 675.845 644.411 677.144 644.671 678.424C644.931 679.704 645.367 680.864 645.979 681.903C646.61 682.942 647.454 683.777 648.512 684.408C649.588 685.02 650.924 685.326 652.52 685.326ZM675.898 658.886V689H670.75V658.886H675.898ZM695.659 658.886L681.381 676.142H674.173L673.394 671.633H679.294L689.397 658.886H695.659ZM690.121 689L679.043 675.362L682.355 671.633L696.661 689H690.121ZM706.708 680.845L720.597 658.886H725.773V689H720.597V667.041L706.708 689H701.587V658.886H706.708V680.845ZM739.606 680.845L753.494 658.886H758.671V689H753.494V667.041L739.606 689H734.485V658.886H739.606V680.845ZM750.683 647.976H754.858C754.858 649.423 754.524 650.712 753.856 651.844C753.188 652.958 752.232 653.83 750.989 654.46C749.746 655.091 748.271 655.407 746.564 655.407C743.985 655.407 741.944 654.72 740.441 653.347C738.957 651.956 738.214 650.165 738.214 647.976H742.389C742.389 649.07 742.705 650.035 743.335 650.87C743.966 651.705 745.042 652.123 746.564 652.123C748.048 652.123 749.106 651.705 749.737 650.87C750.368 650.035 750.683 649.07 750.683 647.976ZM459.198 725.886V756H454.021V725.886H459.198ZM469.301 725.886V730.061H444.113V725.886H469.301ZM484.637 756.557C482.54 756.557 480.638 756.204 478.931 755.499C477.243 754.775 475.786 753.764 474.562 752.465C473.355 751.167 472.428 749.626 471.778 747.845C471.129 746.064 470.804 744.116 470.804 742V740.832C470.804 738.382 471.166 736.202 471.89 734.291C472.613 732.361 473.597 730.729 474.84 729.393C476.083 728.057 477.493 727.045 479.07 726.359C480.647 725.672 482.28 725.329 483.969 725.329C486.121 725.329 487.977 725.7 489.535 726.442C491.112 727.185 492.402 728.224 493.404 729.56C494.406 730.877 495.148 732.436 495.63 734.235C496.113 736.017 496.354 737.965 496.354 740.08V742.39H473.866V738.188H491.205V737.798C491.131 736.462 490.853 735.163 490.37 733.901C489.906 732.64 489.164 731.601 488.144 730.784C487.123 729.968 485.731 729.56 483.969 729.56C482.8 729.56 481.724 729.81 480.74 730.311C479.757 730.793 478.913 731.517 478.208 732.482C477.502 733.447 476.955 734.625 476.565 736.017C476.176 737.408 475.981 739.013 475.981 740.832V742C475.981 743.429 476.176 744.774 476.565 746.036C476.974 747.279 477.558 748.374 478.319 749.32C479.098 750.267 480.035 751.009 481.13 751.547C482.243 752.085 483.505 752.354 484.915 752.354C486.733 752.354 488.273 751.983 489.535 751.241C490.797 750.499 491.901 749.506 492.847 748.263L495.964 750.74C495.315 751.723 494.489 752.66 493.487 753.551C492.485 754.441 491.251 755.165 489.786 755.722C488.338 756.278 486.622 756.557 484.637 756.557ZM505.845 725.886L512.441 736.852L519.121 725.886H525.16L515.308 740.748L525.466 756H519.51L512.552 744.7L505.594 756H499.61L509.741 740.748L499.917 725.886H505.845ZM551.072 738.939V743.114H535.152V738.939H551.072ZM536.237 725.886V756H531.088V725.886H536.237ZM555.247 725.886V756H550.07V725.886H555.247ZM562.177 741.277V740.637C562.177 738.466 562.492 736.453 563.123 734.597C563.754 732.723 564.663 731.1 565.851 729.727C567.038 728.335 568.476 727.259 570.165 726.498C571.853 725.719 573.746 725.329 575.842 725.329C577.958 725.329 579.859 725.719 581.548 726.498C583.255 727.259 584.702 728.335 585.89 729.727C587.096 731.1 588.014 732.723 588.645 734.597C589.276 736.453 589.591 738.466 589.591 740.637V741.277C589.591 743.448 589.276 745.461 588.645 747.316C588.014 749.172 587.096 750.795 585.89 752.187C584.702 753.56 583.264 754.636 581.576 755.416C579.906 756.176 578.013 756.557 575.898 756.557C573.783 756.557 571.881 756.176 570.192 755.416C568.504 754.636 567.057 753.56 565.851 752.187C564.663 750.795 563.754 749.172 563.123 747.316C562.492 745.461 562.177 743.448 562.177 741.277ZM567.326 740.637V741.277C567.326 742.78 567.502 744.199 567.854 745.535C568.207 746.853 568.736 748.021 569.441 749.042C570.165 750.062 571.064 750.87 572.141 751.463C573.217 752.039 574.469 752.326 575.898 752.326C577.308 752.326 578.542 752.039 579.6 751.463C580.676 750.87 581.566 750.062 582.271 749.042C582.977 748.021 583.505 746.853 583.858 745.535C584.229 744.199 584.415 742.78 584.415 741.277V740.637C584.415 739.152 584.229 737.751 583.858 736.434C583.505 735.098 582.967 733.92 582.244 732.899C581.539 731.86 580.648 731.044 579.572 730.45C578.514 729.856 577.271 729.56 575.842 729.56C574.432 729.56 573.189 729.856 572.113 730.45C571.055 731.044 570.165 731.86 569.441 732.899C568.736 733.92 568.207 735.098 567.854 736.434C567.502 737.751 567.326 739.152 567.326 740.637ZM615.726 725.886V730.144H601.169V725.886H615.726ZM620.262 725.886V756H615.113V725.886H620.262ZM599.917 725.886H605.094L604.314 740.414C604.185 742.659 603.971 744.645 603.674 746.37C603.396 748.077 603.006 749.543 602.505 750.768C602.023 751.992 601.411 752.994 600.668 753.773C599.945 754.534 599.073 755.1 598.052 755.471C597.032 755.824 595.854 756 594.518 756H592.903V751.463L594.017 751.38C594.814 751.324 595.492 751.139 596.048 750.823C596.624 750.508 597.106 750.044 597.496 749.432C597.885 748.801 598.201 747.994 598.442 747.01C598.702 746.027 598.896 744.858 599.026 743.503C599.175 742.149 599.286 740.572 599.36 738.772L599.917 725.886ZM627.192 741.277V740.637C627.192 738.466 627.508 736.453 628.139 734.597C628.77 732.723 629.679 731.1 630.866 729.727C632.054 728.335 633.492 727.259 635.18 726.498C636.869 725.719 638.761 725.329 640.858 725.329C642.973 725.329 644.875 725.719 646.563 726.498C648.271 727.259 649.718 728.335 650.905 729.727C652.111 731.1 653.03 732.723 653.661 734.597C654.292 736.453 654.607 738.466 654.607 740.637V741.277C654.607 743.448 654.292 745.461 653.661 747.316C653.03 749.172 652.111 750.795 650.905 752.187C649.718 753.56 648.28 754.636 646.591 755.416C644.921 756.176 643.029 756.557 640.914 756.557C638.798 756.557 636.896 756.176 635.208 755.416C633.52 754.636 632.072 753.56 630.866 752.187C629.679 750.795 628.77 749.172 628.139 747.316C627.508 745.461 627.192 743.448 627.192 741.277ZM632.341 740.637V741.277C632.341 742.78 632.518 744.199 632.87 745.535C633.223 746.853 633.751 748.021 634.457 749.042C635.18 750.062 636.08 750.87 637.156 751.463C638.232 752.039 639.485 752.326 640.914 752.326C642.324 752.326 643.558 752.039 644.615 751.463C645.691 750.87 646.582 750.062 647.287 749.042C647.992 748.021 648.521 746.853 648.874 745.535C649.245 744.199 649.43 742.78 649.43 741.277V740.637C649.43 739.152 649.245 737.751 648.874 736.434C648.521 735.098 647.983 733.92 647.259 732.899C646.554 731.86 645.664 731.044 644.587 730.45C643.53 729.856 642.287 729.56 640.858 729.56C639.448 729.56 638.205 729.856 637.128 730.45C636.071 731.044 635.18 731.86 634.457 732.899C633.751 733.92 633.223 735.098 632.87 736.434C632.518 737.751 632.341 739.152 632.341 740.637ZM680.519 725.886V730.144H666.603V756H661.454V725.886H680.519ZM690.566 747.845L704.454 725.886H709.631V756H704.454V734.041L690.566 756H685.445V725.886H690.566V747.845ZM740.608 725.886V756H735.459V725.886H740.608ZM738.854 739.718V743.949C737.815 744.338 736.758 744.691 735.682 745.006C734.624 745.303 733.501 745.544 732.314 745.73C731.145 745.897 729.874 745.98 728.501 745.98C726.126 745.98 724.066 745.572 722.322 744.756C720.578 743.921 719.233 742.668 718.287 740.999C717.34 739.31 716.867 737.186 716.867 734.625V725.83H722.016V734.625C722.016 736.295 722.267 737.649 722.768 738.688C723.269 739.728 724.001 740.498 724.966 740.999C725.931 741.481 727.109 741.722 728.501 741.722C729.837 741.722 731.089 741.639 732.258 741.472C733.446 741.286 734.578 741.045 735.654 740.748C736.749 740.451 737.815 740.108 738.854 739.718ZM761.398 756.557C759.302 756.557 757.4 756.204 755.693 755.499C754.004 754.775 752.548 753.764 751.323 752.465C750.117 751.167 749.189 749.626 748.54 747.845C747.891 746.064 747.566 744.116 747.566 742V740.832C747.566 738.382 747.928 736.202 748.651 734.291C749.375 732.361 750.358 730.729 751.602 729.393C752.845 728.057 754.255 727.045 755.832 726.359C757.409 725.672 759.042 725.329 760.73 725.329C762.883 725.329 764.738 725.7 766.297 726.442C767.874 727.185 769.164 728.224 770.166 729.56C771.167 730.877 771.91 732.436 772.392 734.235C772.875 736.017 773.116 737.965 773.116 740.08V742.39H750.627V738.188H767.967V737.798C767.893 736.462 767.614 735.163 767.132 733.901C766.668 732.64 765.926 731.601 764.905 730.784C763.885 729.968 762.493 729.56 760.73 729.56C759.562 729.56 758.485 729.81 757.502 730.311C756.519 730.793 755.674 731.517 754.969 732.482C754.264 733.447 753.717 734.625 753.327 736.017C752.938 737.408 752.743 739.013 752.743 740.832V742C752.743 743.429 752.938 744.774 753.327 746.036C753.735 747.279 754.32 748.374 755.081 749.32C755.86 750.267 756.797 751.009 757.892 751.547C759.005 752.085 760.267 752.354 761.677 752.354C763.495 752.354 765.035 751.983 766.297 751.241C767.559 750.499 768.663 749.506 769.609 748.263L772.726 750.74C772.077 751.723 771.251 752.66 770.249 753.551C769.247 754.441 768.013 755.165 766.547 755.722C765.1 756.278 763.384 756.557 761.398 756.557ZM791.179 752.326C792.403 752.326 793.535 752.076 794.574 751.575C795.613 751.074 796.467 750.387 797.135 749.515C797.803 748.625 798.183 747.613 798.276 746.481H803.174C803.082 748.263 802.479 749.923 801.365 751.463C800.271 752.985 798.833 754.219 797.051 755.165C795.27 756.093 793.312 756.557 791.179 756.557C788.915 756.557 786.939 756.158 785.25 755.36C783.581 754.562 782.189 753.467 781.076 752.076C779.981 750.684 779.155 749.088 778.599 747.289C778.061 745.47 777.792 743.55 777.792 741.527V740.358C777.792 738.336 778.061 736.425 778.599 734.625C779.155 732.807 779.981 731.202 781.076 729.81C782.189 728.418 783.581 727.324 785.25 726.526C786.939 725.728 788.915 725.329 791.179 725.329C793.535 725.329 795.595 725.812 797.357 726.776C799.12 727.723 800.502 729.021 801.504 730.673C802.525 732.306 803.082 734.161 803.174 736.239H798.276C798.183 734.996 797.831 733.874 797.218 732.872C796.625 731.87 795.808 731.072 794.769 730.478C793.749 729.866 792.552 729.56 791.179 729.56C789.602 729.56 788.275 729.875 787.199 730.506C786.141 731.118 785.297 731.953 784.666 733.011C784.054 734.05 783.608 735.209 783.33 736.49C783.07 737.751 782.94 739.041 782.94 740.358V741.527C782.94 742.845 783.07 744.144 783.33 745.424C783.59 746.704 784.026 747.864 784.638 748.903C785.269 749.942 786.113 750.777 787.171 751.408C788.247 752.02 789.583 752.326 791.179 752.326ZM814.558 725.886V756H809.409V725.886H814.558ZM834.318 725.886L820.041 743.142H812.832L812.053 738.633H817.953L828.056 725.886H834.318ZM828.78 756L817.703 742.362L821.015 738.633L835.32 756H828.78ZM845.368 747.845L859.256 725.886H864.433V756H859.256V734.041L845.368 756H840.247V725.886H845.368V747.845ZM878.265 747.845L892.153 725.886H897.33V756H892.153V734.041L878.265 756H873.144V725.886H878.265V747.845ZM889.342 714.976H893.517C893.517 716.423 893.183 717.712 892.515 718.844C891.847 719.958 890.892 720.83 889.648 721.46C888.405 722.091 886.93 722.407 885.223 722.407C882.644 722.407 880.603 721.72 879.1 720.347C877.616 718.956 876.874 717.165 876.874 714.976H881.048C881.048 716.07 881.364 717.035 881.995 717.87C882.625 718.705 883.702 719.123 885.223 719.123C886.708 719.123 887.765 718.705 888.396 717.87C889.027 717.035 889.342 716.07 889.342 714.976ZM455.385 819.883L463.763 792.886H469.273L457.194 827.648C456.916 828.39 456.545 829.188 456.081 830.042C455.636 830.914 455.061 831.739 454.355 832.519C453.65 833.298 452.797 833.929 451.795 834.411C450.812 834.912 449.633 835.163 448.26 835.163C447.852 835.163 447.333 835.107 446.702 834.996C446.071 834.884 445.625 834.792 445.366 834.717L445.338 830.542C445.486 830.561 445.718 830.58 446.034 830.598C446.368 830.635 446.6 830.654 446.729 830.654C447.898 830.654 448.891 830.496 449.708 830.181C450.524 829.884 451.21 829.374 451.767 828.65C452.342 827.945 452.834 826.971 453.242 825.728L455.385 819.883ZM449.234 792.886L457.055 816.265L458.391 821.692L454.689 823.584L443.612 792.886H449.234ZM494.35 805.939V810.114H478.43V805.939H494.35ZM479.516 792.886V823H474.367V792.886H479.516ZM498.525 792.886V823H493.348V792.886H498.525ZM512.385 814.845L526.273 792.886H531.45V823H526.273V801.041L512.385 823H507.264V792.886H512.385V814.845ZM553.855 809.752H543.975L543.919 805.633H551.99C553.586 805.633 554.913 805.475 555.97 805.16C557.046 804.844 557.854 804.371 558.392 803.74C558.93 803.109 559.199 802.33 559.199 801.402C559.199 800.679 559.041 800.048 558.726 799.51C558.429 798.953 557.974 798.499 557.362 798.146C556.75 797.775 555.989 797.506 555.08 797.339C554.189 797.153 553.141 797.061 551.935 797.061H545.338V823H540.189V792.886H551.935C553.846 792.886 555.562 793.053 557.083 793.387C558.624 793.721 559.932 794.231 561.008 794.917C562.103 795.585 562.938 796.439 563.513 797.478C564.088 798.517 564.375 799.742 564.375 801.152C564.375 802.061 564.19 802.924 563.819 803.74C563.448 804.557 562.9 805.28 562.177 805.911C561.453 806.542 560.562 807.062 559.505 807.47C558.447 807.859 557.232 808.11 555.859 808.221L553.855 809.752ZM553.855 823H542.11L544.67 818.825H553.855C555.284 818.825 556.471 818.649 557.417 818.296C558.364 817.925 559.069 817.406 559.533 816.738C560.015 816.051 560.256 815.235 560.256 814.289C560.256 813.342 560.015 812.535 559.533 811.867C559.069 811.181 558.364 810.661 557.417 810.309C556.471 809.938 555.284 809.752 553.855 809.752H546.034L546.09 805.633H555.859L557.724 807.191C559.375 807.321 560.776 807.729 561.926 808.416C563.077 809.103 563.949 809.975 564.542 811.032C565.136 812.071 565.433 813.203 565.433 814.428C565.433 815.838 565.164 817.081 564.626 818.157C564.106 819.233 563.346 820.133 562.344 820.857C561.342 821.562 560.126 822.1 558.698 822.471C557.269 822.824 555.655 823 553.855 823ZM584.832 823.557C582.735 823.557 580.833 823.204 579.126 822.499C577.438 821.775 575.981 820.764 574.757 819.465C573.551 818.167 572.623 816.626 571.974 814.845C571.324 813.064 571 811.116 571 809V807.832C571 805.382 571.361 803.202 572.085 801.291C572.809 799.361 573.792 797.729 575.035 796.393C576.278 795.057 577.688 794.045 579.266 793.359C580.843 792.672 582.476 792.329 584.164 792.329C586.316 792.329 588.172 792.7 589.73 793.442C591.308 794.185 592.597 795.224 593.599 796.56C594.601 797.877 595.343 799.436 595.826 801.235C596.308 803.017 596.549 804.965 596.549 807.08V809.39H574.061V805.188H591.4V804.798C591.326 803.462 591.048 802.163 590.565 800.901C590.102 799.64 589.359 798.601 588.339 797.784C587.318 796.968 585.927 796.56 584.164 796.56C582.995 796.56 581.919 796.81 580.936 797.311C579.952 797.793 579.108 798.517 578.403 799.482C577.698 800.447 577.15 801.625 576.761 803.017C576.371 804.408 576.176 806.013 576.176 807.832V809C576.176 810.429 576.371 811.774 576.761 813.036C577.169 814.279 577.753 815.374 578.514 816.32C579.293 817.267 580.23 818.009 581.325 818.547C582.438 819.085 583.7 819.354 585.11 819.354C586.929 819.354 588.469 818.983 589.73 818.241C590.992 817.499 592.096 816.506 593.042 815.263L596.16 817.74C595.51 818.723 594.685 819.66 593.683 820.551C592.681 821.441 591.447 822.165 589.981 822.722C588.534 823.278 586.817 823.557 584.832 823.557ZM607.71 798.675V834.578H602.533V792.886H607.265L607.71 798.675ZM628 807.692V808.277C628 810.466 627.74 812.498 627.22 814.372C626.701 816.228 625.94 817.842 624.938 819.215C623.955 820.588 622.739 821.655 621.292 822.416C619.845 823.176 618.184 823.557 616.31 823.557C614.399 823.557 612.71 823.241 611.245 822.61C609.779 821.979 608.536 821.061 607.515 819.855C606.495 818.649 605.678 817.202 605.066 815.513C604.472 813.825 604.064 811.923 603.841 809.808V806.69C604.064 804.464 604.481 802.469 605.094 800.707C605.706 798.944 606.513 797.441 607.515 796.198C608.536 794.936 609.77 793.98 611.217 793.331C612.664 792.663 614.334 792.329 616.227 792.329C618.119 792.329 619.798 792.7 621.264 793.442C622.73 794.166 623.964 795.205 624.966 796.56C625.968 797.914 626.719 799.538 627.22 801.43C627.74 803.304 628 805.392 628 807.692ZM622.823 808.277V807.692C622.823 806.189 622.665 804.779 622.35 803.462C622.034 802.126 621.542 800.957 620.875 799.955C620.225 798.935 619.39 798.137 618.37 797.562C617.349 796.968 616.134 796.671 614.724 796.671C613.425 796.671 612.293 796.894 611.328 797.339C610.382 797.784 609.575 798.387 608.907 799.148C608.239 799.89 607.691 800.744 607.265 801.708C606.856 802.655 606.55 803.638 606.346 804.659V811.867C606.717 813.166 607.237 814.391 607.905 815.541C608.573 816.673 609.463 817.591 610.577 818.296C611.69 818.983 613.091 819.326 614.779 819.326C616.171 819.326 617.368 819.039 618.37 818.463C619.39 817.87 620.225 817.062 620.875 816.042C621.542 815.021 622.034 813.853 622.35 812.535C622.665 811.199 622.823 809.78 622.823 808.277ZM646.619 819.326C647.844 819.326 648.976 819.076 650.015 818.575C651.054 818.074 651.907 817.387 652.575 816.515C653.243 815.625 653.624 814.613 653.716 813.481H658.615C658.522 815.263 657.919 816.923 656.806 818.463C655.711 819.985 654.273 821.219 652.492 822.165C650.71 823.093 648.753 823.557 646.619 823.557C644.355 823.557 642.379 823.158 640.691 822.36C639.021 821.562 637.629 820.467 636.516 819.076C635.421 817.684 634.596 816.088 634.039 814.289C633.501 812.47 633.232 810.55 633.232 808.527V807.358C633.232 805.336 633.501 803.425 634.039 801.625C634.596 799.807 635.421 798.202 636.516 796.81C637.629 795.418 639.021 794.324 640.691 793.526C642.379 792.728 644.355 792.329 646.619 792.329C648.976 792.329 651.035 792.812 652.798 793.776C654.561 794.723 655.943 796.021 656.945 797.673C657.965 799.306 658.522 801.161 658.615 803.239H653.716C653.624 801.996 653.271 800.874 652.659 799.872C652.065 798.87 651.249 798.072 650.209 797.478C649.189 796.866 647.992 796.56 646.619 796.56C645.042 796.56 643.715 796.875 642.639 797.506C641.582 798.118 640.737 798.953 640.106 800.011C639.494 801.05 639.049 802.209 638.771 803.49C638.511 804.751 638.381 806.041 638.381 807.358V808.527C638.381 809.845 638.511 811.144 638.771 812.424C639.03 813.704 639.466 814.864 640.079 815.903C640.709 816.942 641.554 817.777 642.611 818.408C643.688 819.02 645.023 819.326 646.619 819.326ZM669.97 814.845L683.858 792.886H689.035V823H683.858V801.041L669.97 823H664.849V792.886H669.97V814.845ZM709.575 792.886V823H704.398V792.886H709.575ZM719.678 792.886V797.061H694.49V792.886H719.678ZM735.014 823.557C732.917 823.557 731.015 823.204 729.308 822.499C727.62 821.775 726.163 820.764 724.938 819.465C723.732 818.167 722.805 816.626 722.155 814.845C721.506 813.064 721.181 811.116 721.181 809V807.832C721.181 805.382 721.543 803.202 722.267 801.291C722.99 799.361 723.974 797.729 725.217 796.393C726.46 795.057 727.87 794.045 729.447 793.359C731.024 792.672 732.657 792.329 734.346 792.329C736.498 792.329 738.354 792.7 739.912 793.442C741.489 794.185 742.779 795.224 743.781 796.56C744.783 797.877 745.525 799.436 746.007 801.235C746.49 803.017 746.731 804.965 746.731 807.08V809.39H724.243V805.188H741.582V804.798C741.508 803.462 741.229 802.163 740.747 800.901C740.283 799.64 739.541 798.601 738.521 797.784C737.5 796.968 736.108 796.56 734.346 796.56C733.177 796.56 732.101 796.81 731.117 797.311C730.134 797.793 729.29 798.517 728.584 799.482C727.879 800.447 727.332 801.625 726.942 803.017C726.553 804.408 726.358 806.013 726.358 807.832V809C726.358 810.429 726.553 811.774 726.942 813.036C727.351 814.279 727.935 815.374 728.696 816.32C729.475 817.267 730.412 818.009 731.507 818.547C732.62 819.085 733.882 819.354 735.292 819.354C737.11 819.354 738.65 818.983 739.912 818.241C741.174 817.499 742.278 816.506 743.224 815.263L746.341 817.74C745.692 818.723 744.866 819.66 743.864 820.551C742.862 821.441 741.628 822.165 740.163 822.722C738.715 823.278 736.999 823.557 735.014 823.557ZM764.683 792.886V823H759.506V792.886H764.683ZM774.786 792.886V797.061H749.598V792.886H774.786Z" fill="white"/>
<path fill-rule="evenodd" clip-rule="evenodd" d="M395.16 783.82C301.89 779.76 214.79 741.52 148.36 675.09C77.74 604.48 38.33 507.91 39.28 408.05C40.2 311.15 77.91 220.11 145.78 150.94C215.71 79.6501 311.87 39.2401 411.73 39.2401C511.22 39.2401 604.76 77.9801 675.11 148.33C741.55 214.78 779.8 301.9 783.85 395.19C784.25 404.46 792.01 411.71 801.29 411.71H822.85C822.85 184.65 638.79 0.590088 411.74 0.590088C184.89 0.590088 0.610001 184.87 0.610001 411.71C0.610001 638.77 184.68 822.83 411.73 822.83V801.26C411.73 791.96 404.45 784.23 395.16 783.82ZM821.48 448.44V618.56H781.78V523.28C781.78 518.85 781.91 514.16 782.19 509.21C782.46 504.27 782.98 499 783.76 493.39C781.97 498.38 780.03 502.99 777.92 507.23C775.82 511.47 773.76 515.19 771.74 518.38L720.01 606.77C719.15 608.17 718.12 609.57 716.92 610.97C715.71 612.37 714.36 613.64 712.89 614.77C711.41 615.9 709.81 616.81 708.1 617.51C706.39 618.21 704.6 618.56 702.73 618.56H672.95V448.44H712.65V543.6C712.65 548.04 712.54 552.73 712.3 557.67C712.07 562.62 711.52 567.89 710.67 573.49C712.46 568.59 714.41 564.02 716.51 559.77C718.61 555.53 720.67 551.81 722.7 548.62L774.42 460.23C775.28 458.83 776.31 457.43 777.52 456.03C778.72 454.63 780.07 453.36 781.54 452.23C783.02 451.11 784.62 450.19 786.33 449.49C788.04 448.79 789.83 448.44 791.7 448.44H821.48ZM983.13 504.02C983.13 512.5 981.77 520.29 979.04 527.37C976.32 534.46 972.16 540.53 966.55 545.59C960.94 550.65 953.84 554.6 945.24 557.44C936.64 560.28 926.46 561.7 914.71 561.7H894.16V618.56H854.69V448.44H914.71C926.69 448.44 936.99 449.86 945.59 452.7C954.19 455.54 961.28 459.45 966.84 464.44C972.41 469.42 976.51 475.29 979.16 482.07C981.81 488.84 983.13 496.16 983.13 504.02ZM943.66 504.02C943.66 500.13 943.08 496.59 941.91 493.39C940.75 490.2 938.97 487.46 936.6 485.16C934.23 482.87 931.23 481.09 927.61 479.85C923.99 478.6 919.69 477.98 914.71 477.98H894.16V531.93H914.71C924.98 531.93 932.38 529.47 936.89 524.57C941.41 519.67 943.66 512.82 943.66 504.02ZM993.66 469.22C996.86 465.95 1000.49 462.92 1004.58 460.11C1008.67 457.31 1013.16 454.92 1018.07 452.93C1022.97 450.95 1028.27 449.39 1033.95 448.26C1039.63 447.14 1045.66 446.57 1052.05 446.57C1064.58 446.57 1076.06 448.71 1086.49 452.99C1096.92 457.28 1105.87 463.27 1113.35 470.97C1120.82 478.68 1126.62 487.85 1130.74 498.47C1134.87 509.1 1136.93 520.76 1136.93 533.44C1136.93 545.9 1135.02 557.44 1131.21 568.06C1127.4 578.69 1121.93 587.87 1114.81 595.62C1107.68 603.37 1099 609.44 1088.77 613.83C1078.53 618.23 1066.95 620.43 1054.03 620.43C1039.94 620.43 1027.74 618.15 1017.43 613.6C1007.11 609.05 998.53 602.29 991.68 593.34L1007.33 576.88C1008.18 576.02 1009.08 575.42 1010.01 575.07C1010.95 574.72 1011.88 574.54 1012.81 574.54C1013.98 574.54 1015.11 574.8 1016.2 575.3C1017.29 575.81 1018.3 576.45 1019.24 577.23C1021.57 579.33 1023.87 581.06 1026.12 582.42C1028.38 583.79 1030.8 584.88 1033.36 585.69C1035.93 586.51 1038.68 587.1 1041.6 587.45C1044.51 587.8 1047.8 587.97 1051.46 587.97C1056.83 587.97 1061.93 587.08 1066.76 585.29C1071.58 583.5 1075.94 580.85 1079.84 577.35C1083.73 573.84 1087.03 569.52 1089.76 564.38C1092.48 559.25 1094.39 553.33 1095.48 546.64H1023.09V518.38H1095.25C1094.08 512.08 1092.23 506.49 1089.7 501.62C1087.17 496.76 1084.06 492.65 1080.36 489.31C1076.66 485.96 1072.44 483.43 1067.69 481.72C1062.94 480.01 1057.81 479.15 1052.28 479.15C1046.05 479.15 1041.01 479.79 1037.16 481.07C1033.31 482.36 1030.07 483.76 1027.47 485.28C1024.86 486.8 1022.64 488.2 1020.81 489.48C1018.98 490.77 1017.02 491.41 1014.92 491.41C1012.81 491.41 1011.18 490.96 1010.01 490.07C1008.84 489.17 1007.83 488.18 1006.98 487.09L993.66 469.22ZM1309.28 618.56H1278.69C1275.26 618.56 1272.5 617.77 1270.4 616.17C1268.3 614.57 1266.7 612.53 1265.61 610.04L1255.57 580.38H1190.88L1180.84 610.04C1179.98 612.22 1178.45 614.18 1176.23 615.94C1174.01 617.69 1171.27 618.56 1168 618.56H1137.17L1203.03 448.44H1243.43L1309.28 618.56ZM1246.58 553.53L1230.82 506.94C1229.65 503.98 1228.4 500.5 1227.08 496.49C1225.75 492.48 1224.43 488.14 1223.11 483.47C1221.94 488.22 1220.7 492.62 1219.37 496.66C1218.05 500.71 1216.81 504.21 1215.64 507.17L1199.99 553.53H1246.58ZM730.07 411.71H708.37C699.13 411.71 691.48 404.52 690.95 395.3C687.01 326.76 658.44 262.88 609.5 213.94C556 160.45 484.65 131.29 408.88 132.04C337.14 132.75 268 161.25 216.62 211.32C161.22 265.31 131.06 338.11 132.07 415.46C133 487.2 161.74 556.24 211.97 607.46C261.16 657.63 325.84 686.93 395.3 690.93C404.53 691.46 411.73 699.1 411.73 708.34V730.05C235.92 730.05 93.4 587.52 93.4 411.71C93.39 236.06 236.09 93.3701 411.74 93.3701C587.55 93.3701 730.07 235.9 730.07 411.71ZM637.1 411.71H615.17C606.02 411.71 598.54 404.63 597.75 395.5C589.23 296.81 503.6 219.83 401.58 225.27C306.92 230.31 230.33 306.89 225.29 401.55C219.86 503.58 296.84 589.2 395.53 597.73C404.65 598.52 411.73 605.99 411.73 615.15V637.08C286.2 637.08 184.64 534.44 186.39 408.5C188.08 287.12 287.14 188.06 408.52 186.37C534.46 184.61 637.1 286.18 637.1 411.71ZM639.74 448.44V618.56H604.95V520.71C604.95 518.46 605.01 516.01 605.12 513.36C605.24 510.71 605.45 508.03 605.76 505.3L560.58 592.76C559.18 595.48 557.29 597.55 554.91 598.95C552.54 600.35 549.84 601.05 546.8 601.05H541.43C538.39 601.05 535.69 600.35 533.31 598.95C530.94 597.55 529.05 595.48 527.65 592.76L482.46 505.07C482.7 507.87 482.89 510.61 483.05 513.3C483.2 515.99 483.28 518.46 483.28 520.71V618.56H448.49V448.44H478.61C480.32 448.44 481.82 448.48 483.11 448.56C484.39 448.63 485.54 448.87 486.55 449.26C487.56 449.65 488.48 450.25 489.29 451.07C490.11 451.88 490.91 453.03 491.69 454.51L535.47 540.8C537.03 543.76 538.53 546.83 539.97 550.02C541.41 553.22 542.79 556.48 544.11 559.83C545.44 556.41 546.82 553.06 548.26 549.79C549.7 546.52 551.24 543.41 552.87 540.45L596.54 454.51C597.32 453.03 598.12 451.88 598.93 451.07C599.75 450.25 600.67 449.65 601.68 449.26C602.69 448.87 603.84 448.63 605.12 448.56C606.41 448.48 607.91 448.44 609.62 448.44H639.74Z" fill="url(#paint0_linear_5_401)"/>
<path fill-rule="evenodd" clip-rule="evenodd" d="M436.3 514.46C433.85 515.05 431.37 515.59 428.86 516C428.85 516.01 428.85 516.02 428.84 516.02C428.53 516.07 428.22 516.1 427.91 516.15C426.8 516.32 425.68 516.48 424.56 516.62C424.04 516.68 423.53 516.74 423.01 516.8C421.9 516.92 420.78 517.02 419.65 517.1C419.38 517.12 419.11 517.16 418.84 517.18C418.85 517.17 418.86 517.16 418.86 517.16C416.5 517.32 414.13 517.42 411.73 517.42C380.83 517.42 353.05 504 333.82 482.63C332.8 481.5 331.8 480.34 330.83 479.16C330.32 478.54 329.83 477.89 329.33 477.25C328.91 476.72 328.48 476.21 328.08 475.67V475.66C314.65 457.9 306.66 435.75 306.66 411.71C306.66 397.64 309.41 384.23 314.37 371.96C314.37 371.95 314.37 371.94 314.36 371.93C314.44 371.74 314.52 371.56 314.6 371.38C314.9 370.64 315.22 369.91 315.54 369.18C315.86 368.43 316.19 367.7 316.53 366.96C316.86 366.27 317.19 365.58 317.52 364.89C317.67 364.59 317.81 364.28 317.96 363.98C317.96 363.99 317.97 364.01 317.97 364.02C320.8 358.4 324.14 353.09 327.88 348.1C327.85 348.11 327.83 348.11 327.8 348.11C328.22 347.55 328.69 347.03 329.12 346.48C329.94 345.44 330.77 344.41 331.62 343.4C332.05 342.9 332.44 342.36 332.87 341.86C332.9 341.86 332.92 341.86 332.95 341.86C347.05 325.77 365.91 314.01 387.35 308.88C387.35 308.87 387.34 308.87 387.33 308.87C387.51 308.83 387.68 308.8 387.86 308.76C389.18 308.45 390.51 308.16 391.85 307.9C392.02 307.87 392.18 307.83 392.35 307.8C393.94 307.5 395.54 307.24 397.16 307.02C397.16 307.01 397.16 307.01 397.17 307.01C401.93 306.35 406.79 306 411.73 306C450.25 306 483.91 326.86 502.2 357.96C502.21 357.96 502.22 357.96 502.22 357.97C502.48 358.41 502.72 358.87 502.98 359.32C503.45 360.15 503.93 360.99 504.39 361.84C504.72 362.46 505.03 363.1 505.35 363.74C505.77 364.55 506.19 365.36 506.58 366.19C506.61 366.24 506.63 366.28 506.65 366.33C506.65 366.33 506.65 366.32 506.64 366.32C513.15 380.08 516.8 395.46 516.8 411.71C516.8 415.4 516.61 419.05 516.25 422.65C516.09 424.23 515.88 425.8 515.65 427.37C515.54 428.12 515.4 428.87 515.27 429.62C515.17 430.24 515.08 430.87 514.96 431.5C514.95 431.5 514.94 431.51 514.94 431.51C513.38 439.77 510.86 447.67 507.51 455.13L503.64 446.93C502.93 445.48 502.22 444.25 501.49 443.18C501.74 442.47 502 441.76 502.23 441.04C501.71 441.38 501.17 441.7 500.65 442.03C500.4 441.72 500.16 441.42 499.91 441.15C498.7 439.85 497.34 438.9 495.87 438.25C498.84 436.43 501.73 434.5 504.54 432.43C506 425.76 506.8 418.83 506.8 411.71C506.8 392.74 501.29 375.08 491.82 360.21C480.66 356.44 468.78 354.28 456.44 354.03C455.97 356.55 454.78 358.81 453.1 360.6C463.23 378.99 469.02 400.11 469.02 422.58C469.02 427.37 468.73 432.1 468.22 436.75H462.35C462.91 432.1 463.23 427.38 463.23 422.58C463.23 401.29 457.78 381.28 448.25 363.81C446.84 364.33 445.33 364.66 443.74 364.66C438.18 364.66 433.49 361.12 431.66 356.17C426.3 357.21 421.08 358.64 416 360.38C416.09 361 416.19 361.61 416.19 362.25C416.19 364.03 415.83 365.73 415.18 367.28C437.05 384.28 453.32 408.6 460.68 436.75H454.91C447.7 410.51 432.35 387.84 411.85 371.9C409.56 373.97 406.57 375.26 403.26 375.26C399.37 375.26 395.93 373.5 393.56 370.78C377.52 380.35 363.86 393.62 353.65 409.43C356.26 411.82 357.93 415.22 357.93 419.04C357.93 421.55 357.19 423.86 355.97 425.85C377.03 444.37 404.39 455.59 434.33 455.59C434.99 455.59 435.64 455.55 436.3 455.54V461.31C435.64 461.32 434.99 461.36 434.33 461.36C402.85 461.36 374.09 449.5 352.01 429.95C349.99 431.27 347.59 432.05 345 432.05C344.05 432.05 343.14 431.94 342.25 431.75C337.96 442.79 335.14 454.6 334.15 466.95C351.37 491.39 379.69 507.36 411.73 507.36C418.38 507.36 424.86 506.67 431.12 505.36C432.92 503.39 434.63 501.34 436.3 499.25V514.46ZM412.66 316.09C422.38 322.74 431.14 330.68 438.71 339.66C440.26 339.01 441.96 338.64 443.74 338.64C449.7 338.64 454.67 342.72 456.17 348.24C466.6 348.42 476.71 349.9 486.38 352.52C469.15 330.55 442.56 316.38 412.66 316.09ZM347 341.75C363.57 342.58 379.26 346.85 393.5 353.8C395.87 351.03 399.34 349.24 403.26 349.24C407.72 349.24 411.66 351.52 413.98 354.98C419.48 353.09 425.13 351.53 430.93 350.42C431.2 347.63 432.31 345.12 434.05 343.13C425.13 332.61 414.51 323.58 402.56 316.52C381.17 318.58 361.88 327.81 347 341.75ZM322.62 378.34C326.77 388.89 332.34 398.7 339.03 407.56C340.82 406.62 342.83 406.03 345 406.03C346.28 406.03 347.49 406.28 348.66 406.63C359.4 389.85 373.87 375.82 390.84 365.7C390.54 364.6 390.32 363.45 390.32 362.25C390.32 361.04 390.54 359.9 390.84 358.79C375.83 351.54 359.11 347.46 341.48 347.37C333.38 356.32 326.9 366.78 322.62 378.34ZM337.12 429.29C334.07 426.91 332.07 423.23 332.07 419.04C332.07 416.12 333.06 413.45 334.67 411.28C328.93 403.69 323.99 395.43 319.99 386.62C317.84 394.62 316.67 403.03 316.67 411.71C316.67 429.06 321.28 445.32 329.31 459.35C330.73 448.87 333.39 438.8 337.12 429.29Z" fill="url(#paint1_linear_5_401)" stroke="white" stroke-width="5"/>
<defs>
<linearGradient id="paint0_linear_5_401" x1="1373.5" y1="557.586" x2="783.682" y2="1260.51" gradientUnits="userSpaceOnUse">
<stop stop-color="white"/>
<stop offset="0.825" stop-color="white"/>
<stop offset="1" stop-color="white"/>
</linearGradient>
<linearGradient id="paint1_linear_5_401" x1="566.357" y1="400.556" x2="427.591" y2="565.931" gradientUnits="userSpaceOnUse">
<stop stop-color="white"/>
<stop offset="1" stop-color="white"/>
</linearGradient>
</defs>
</svg>
