<svg width="150" height="30" fill="none" xmlns="http://www.w3.org/2000/svg"><path d="M11.255 27.857v.238h.263v-.238h-.263Zm0-3.6-.187-.168-.077.07v.098h.264Zm3.95-3.574v-.238h-.109l-.077.07.186.168Zm1.99 0 .185-.17-.077-.068h-.108v.238Zm3.979 3.574h.263v-.099l-.078-.07-.186.17Zm0 3.6h-.264v.238h.264v-.238Zm3.95 0v.238h.263v-.238h-.263Zm0-5.374h.263v-.098l-.076-.07-.187.168Zm-3.95-3.6-.187-.168-.184.168.184.168.187-.168Zm3.95-3.6.187.168.076-.07v-.098h-.263Zm0-5.426h.263V9.62h-.263v.238Zm-3.95 0V9.62h-.264v.238h.264Zm0 3.626.186.168.077-.07v-.098h-.264Zm-3.98 3.6v.238h.11l.077-.07-.186-.168Zm-1.989 0-.187.168.077.07h.11v-.238Zm-3.95-3.6h-.264v.098l.077.07.187-.168Zm0-3.626h.263V9.62h-.263v.238Zm-3.98 0V9.62h-.263v.238h.264Zm0 5.426h-.263v.099l.078.07.186-.17Zm3.98 3.6.186.168.186-.168-.186-.168-.186.168Zm-3.98 3.6-.185-.169-.078.07v.099h.264Zm0 5.374h-.263v.238h.264v-.238Zm4.243 0v-3.6h-.527v3.6h.527Zm-.077-3.431 3.95-3.575-.372-.336-3.95 3.574.372.337Zm3.764-3.505h1.99v-.476h-1.99v.476Zm1.804-.07 3.98 3.575.37-.338-3.979-3.574-.37.338Zm3.901 3.406v3.6h.527v-3.6h-.527Zm.264 3.838h3.95v-.476h-3.95v.476Zm4.213-.238v-5.374h-.526v5.374h.526Zm-.076-5.542-3.95-3.6-.374.336 3.95 3.6.374-.336Zm-3.95-3.264 3.95-3.6-.374-.336-3.95 3.6.373.336Zm4.026-3.768V9.857h-.526v5.426h.526Zm-.263-5.664h-3.95v.476h3.95V9.62Zm-4.214.238v3.626h.527V9.857h-.527Zm.077 3.458-3.978 3.6.372.336 3.979-3.6-.373-.336Zm-3.792 3.53h-1.99v.476h1.99v-.476Zm-1.803.07-3.95-3.6-.374.336 3.95 3.6.374-.336Zm-3.874-3.432V9.857h-.527v3.626h.527Zm-.263-3.864h-3.98v.476h3.98V9.62Zm-4.243.238v5.426h.527V9.857h-.527Zm.078 5.594 3.979 3.6.372-.336-3.98-3.6-.371.336Zm3.979 3.264-3.98 3.6.373.336 3.979-3.6-.373-.336Zm-4.057 3.768v5.374h.527v-5.374h-.527Zm.264 5.612h3.979v-.476h-3.98v.476Zm24.1-9.212h-.262v.238h.263v-.238Zm0-1.8-.187-.167-.075.07v.097h.263Zm3.951-3.626v-.238h-.11l-.077.071.187.167Zm5.969 0h.263v-.238h-.263v.238Zm0 5.426v.238h.263v-.238h-.263Zm-9.92 8.974v.238h.264v-.238h-.263Zm0-5.374v-.238h-.262v.238h.263Zm9.92 0h.263v-.238h-.263v.238Zm0 5.374h-.263v.238h.263v-.238Zm3.95 0v.238h.264v-.238h-.264Zm0-18h.264V9.62h-.264v.238Zm-11.908 0V9.62h-.11l-.077.07.187.168Zm-5.94 5.426-.187-.168-.076.07v.098h.263Zm0 12.574h-.263v.238h.263v-.238Zm4.242-8.974v-1.8h-.526v1.8h.526Zm-.076-1.633 3.95-3.626-.374-.334-3.95 3.626.374.334Zm3.763-3.555h5.969v-.476h-5.969v.476Zm5.706-.238v5.426h.526v-5.426h-.526Zm.263 5.188h-9.92v.476h9.92v-.476Zm-9.656 9.212v-5.374h-.526v5.374h.526Zm-.263-5.136h9.919v-.476h-9.92v.476Zm9.656-.238v5.374h.526v-5.374h-.526Zm.263 5.612h3.95v-.476h-3.95v.476Zm4.214-.238v-18h-.527v18h.527ZM45.245 9.62H33.338v.476h11.908V9.62Zm-12.095.07-5.94 5.426.374.335 5.94-5.425-.374-.335Zm-6.016 5.594v12.574h.526V15.283h-.526Zm.263 12.812h3.979v-.476h-3.98v.476Zm24.663-.238v.238h.263v-.238h-.263Zm0-7.174v-.238h-.263v.238h.263Zm5.94 0 .185-.17-.077-.068h-.108v.238Zm3.979 3.574h.263v-.099l-.078-.07-.185.17Zm0 3.6h-.263v.238h.263v-.238Zm3.95 0v.238h.264v-.238h-.264Zm0-5.374h.264v-.098l-.077-.07-.187.168Zm-3.95-3.6-.187-.168-.184.168.184.168.187-.168Zm3.95-3.6.187.168.077-.07v-.098h-.264Zm0-5.426h.264V9.62h-.264v.238Zm-3.95 0V9.62h-.263v.238h.263Zm0 3.626.186.168.077-.07v-.098h-.263Zm-3.979 3.6v.238h.109l.077-.07-.186-.168Zm-5.94 0h-.263v.238h.263v-.238Zm0-7.226h.263V9.62h-.263v.238Zm-3.979 0V9.62h-.263v.238h.263Zm0 18h-.263v.238h.263v-.238Zm4.242 0v-7.174h-.526v7.174h.526Zm-.263-6.936h5.94v-.476h-5.94v.476Zm5.755-.07 3.978 3.575.371-.338-3.979-3.574-.37.338Zm3.9 3.406v3.6h.527v-3.6h-.526Zm.264 3.838h3.95v-.476h-3.95v.476Zm4.214-.238v-5.374h-.527v5.374h.527Zm-.077-5.542-3.95-3.6-.374.336 3.95 3.6.374-.336Zm-3.95-3.264 3.95-3.6-.373-.336-3.95 3.6.373.336Zm4.027-3.768V9.857h-.527v5.426h.527Zm-.264-5.664h-3.95v.476h3.95V9.62Zm-4.213.238v3.626h.526V9.857h-.526Zm.077 3.458-3.979 3.6.372.336 3.979-3.6-.372-.336ZM58 16.845h-5.94v.476h5.94v-.476Zm-5.677.238V9.857h-.526v7.226h.526Zm-.263-7.464h-3.979v.476h3.979V9.62Zm-4.242.238v18h.526v-18h-.526Zm.263 18.238h3.979v-.476h-3.979v.476Zm24.095-9.212h-.264v.238h.264v-.238Zm0-1.8-.188-.167-.076.07v.097h.264Zm3.95-3.626v-.238h-.11l-.077.071.187.167Zm5.969 0h.263v-.238h-.263v.238Zm0 5.426v.238h.263v-.238h-.263Zm-9.92 8.974v.238h.264v-.238h-.263Zm0-5.374v-.238h-.263v.238h.264Zm9.92 0h.263v-.238h-.263v.238Zm0 5.374h-.264v.238h.264v-.238Zm3.95 0v.238h.263v-.238h-.263Zm0-18h.263V9.62h-.263v.238Zm-11.908 0V9.62h-.11l-.077.07.187.168Zm-5.94 5.426-.187-.168-.076.07v.098h.263Zm0 12.574h-.263v.238h.263v-.238Zm4.242-8.974v-1.8h-.527v1.8h.527Zm-.076-1.633 3.95-3.626-.374-.334-3.95 3.626.374.334Zm3.763-3.555h5.969v-.476h-5.969v.476Zm5.705-.238v5.426h.527v-5.426h-.527Zm.264 5.188h-9.92v.476h9.92v-.476Zm-9.656 9.212v-5.374h-.527v5.374h.527Zm-.263-5.136h9.918v-.476h-9.918v.476Zm9.655-.238v5.374h.527v-5.374h-.527Zm.264 5.612h3.95v-.476h-3.95v.476Zm4.213-.238v-18h-.526v18h.526ZM86.046 9.62H74.138v.476h11.908V9.62Zm-12.095.07-5.94 5.426.374.335 5.94-5.425-.374-.335Zm-6.016 5.594v12.574h.526V15.283h-.526Zm.263 12.812h3.979v-.476h-3.98v.476Zm30.773-.238v.238h.263v-.238h-.263Zm0-14.4v-.238h-.263v.238h.263Zm6.907 0v.238h.263v-.238h-.263Zm0-3.6h.263V9.62h-.263v.238Zm-17.849 0V9.62h-.263v.238h.263Zm0 3.6h-.263v.238h.263v-.238Zm6.963 0h.263v-.238h-.263v.238Zm0 14.4h-.263v.238h.263v-.238Zm4.242 0v-14.4h-.526v14.4h.526Zm-.263-14.162h6.907v-.476h-6.907v.476Zm7.17-.238v-3.6h-.527v3.6h.527Zm-.263-3.838H88.029v.476h17.849V9.62Zm-18.112.238v3.6h.526v-3.6h-.526Zm.263 3.838h6.963v-.476H88.03v.476Zm6.7-.238v14.4h.526v-14.4h-.526Zm.263 14.638h3.98v-.476h-3.98v.476Zm16.853-3.838h-.263v.238h.263v-.238Zm0-10.8v-.238h-.263v.238h.263Zm9.919 0h.263v-.238h-.263v.238Zm0 10.8v.238h.263v-.238h-.263Zm1.989 3.6v.238h.11l.077-.07-.187-.168Zm1.961-1.774.187.168.077-.07v-.098h-.264Zm0-14.4h.264v-.097l-.075-.07-.189.167Zm-1.961-1.826.189-.166-.077-.072h-.112v.238Zm-13.926 0V9.62h-.111l-.078.072.189.166Zm-1.961 1.826-.189-.166-.074.07v.096h.263Zm0 14.4h-.263v.098l.077.07.186-.168Zm1.961 1.774-.186.169.077.07h.109v-.239Zm2.281-3.6v-10.8h-.526v10.8h.526Zm-.263-10.562h9.919v-.476h-9.919v.476Zm9.656-.238v10.8h.526v-10.8h-.526Zm.263 10.562h-9.919v.476h9.919v-.476Zm2.176 4.007 1.961-1.775-.373-.337-1.961 1.775.373.337Zm2.038-1.943v-14.4h-.527v14.4h.527Zm-.075-14.566-1.961-1.826-.377.332 1.961 1.826.377-.332Zm-2.15-1.898h-13.926v.476h13.926V9.62Zm-14.115.072-1.961 1.826.378.332 1.961-1.826-.378-.332Zm-2.035 1.992v14.4h.526v-14.4h-.526Zm.077 14.568 1.961 1.774.372-.336-1.961-1.774-.372.336Zm2.147 1.844h13.926v-.476h-13.926v.476Zm22.696-.238v.238h.263v-.238h-.263Zm0-7.174v-.238h-.264v.238h.264Zm9.919 0h.263v-.238h-.263v.238Zm0 7.174h-.264v.238h.264v-.238Zm3.95 0v.238h.263v-.238h-.263Zm0-18h.263V9.62h-.263v.238Zm-3.95 0V9.62h-.264v.238h.264Zm0 7.226v.238h.263v-.238h-.263Zm-9.919 0h-.264v.238h.264v-.238Zm0-7.226h.263V9.62h-.263v.238Zm-3.979 0V9.62h-.263v.238h.263Zm0 18h-.263v.238h.263v-.238Zm4.242 0v-7.174h-.527v7.174h.527Zm-.263-6.936h9.919v-.476h-9.919v.476Zm9.655-.238v7.174h.527v-7.174h-.527Zm.264 7.412h3.95v-.476h-3.95v.476Zm4.213-.238v-18h-.526v18h.526Zm-.263-18.238h-3.95v.476h3.95V9.62Zm-4.214.238v7.226h.527V9.857h-.527Zm.264 6.988h-9.919v.476h9.919v-.476Zm-9.656.238V9.857h-.527v7.226h.527Zm-.263-7.464h-3.979v.476h3.979V9.62Zm-4.242.238v18h.526v-18h-.526Zm.263 18.238h3.979v-.476h-3.979v.476Z" fill="#07F"/><path d="M5.116 23.571v-3.6l3.95-3.574h1.99l3.979 3.574v3.6h3.95v-5.374l-3.95-3.6 3.95-3.6V5.571h-3.95v3.626l-3.98 3.6H9.067l-3.95-3.6V5.571H1.137v5.426l3.979 3.6-3.979 3.6v5.374h3.979Zm20.122-8.974v-1.8l3.95-3.626h5.97v5.426h-9.92Zm0 8.974v-5.374h9.92v5.374h3.95v-18H27.199l-5.94 5.426v12.574h3.98Zm20.684 0v-7.174h5.94l3.98 3.574v3.6h3.95v-5.374l-3.95-3.6 3.95-3.6V5.571h-3.95v3.626l-3.98 3.6h-5.94V5.571h-3.979v18h3.98Zm20.116-8.974v-1.8l3.95-3.626h5.969v5.426h-9.919Zm0 8.974v-5.374h9.919v5.374h3.95v-18H68l-5.94 5.426v12.574h3.979Zm26.794 0v-14.4h6.907v-3.6H81.89v3.6h6.963v14.4h3.98Zm12.874-3.6v-10.8h9.919v10.8h-9.919Zm11.909 3.6 1.961-1.774v-14.4l-1.961-1.826h-13.926l-1.962 1.826v14.4l1.962 1.774h13.926Zm8.769 0v-7.174h9.919v7.174h3.95v-18h-3.95v7.226h-9.919V5.571h-3.979v18h3.979Z" fill="#F2F2F2"/></svg>