<svg width="28" height="24" fill="none" xmlns="http://www.w3.org/2000/svg"><path fill-rule="evenodd" clip-rule="evenodd" d="M26.114.13C24.25.836 1.28 9.917.942 10.082c-1.125.549-1.256 1.273-.32 1.763.09.047 1.645.559 3.455 1.137l3.29 1.051 7.473-4.81c4.11-2.646 7.555-4.84 7.657-4.877.253-.09.472-.082.574.023.071.073.074.11.017.218-.037.071-2.766 2.622-6.065 5.668-3.298 3.046-6.005 5.562-6.016 5.59-.01.03-.122 1.55-.248 3.38l-.228 3.326.248-.034a1.69 1.69 0 0 0 .48-.16c.127-.07.986-.87 1.908-1.78.922-.908 1.708-1.664 1.747-1.68.04-.015 1.507 1.055 3.263 2.378 1.755 1.324 3.329 2.472 3.497 2.552.44.21.938.23 1.26.053.288-.159.57-.553.688-.963.046-.16 1.05-4.931 2.23-10.604C27.819 2.867 28 1.953 28 1.463c0-.464-.018-.574-.139-.818a1.307 1.307 0 0 0-.372-.45c-.323-.234-.86-.26-1.375-.065Z" fill="#F2F2F2"/></svg>