<svg width="60" height="60" fill="none" xmlns="http://www.w3.org/2000/svg"><g clip-path="url('#clip0_26_548')"><path d="M28.769 60h2.498c13.563 0 20.345 0 24.557-4.212S60 44.796 60 31.268v-2.535c0-13.527 0-20.309-4.176-24.521S44.83 0 31.267 0H28.77C15.204 0 8.424 0 4.212 4.212S0 15.202 0 28.732v2.535c0 13.529 0 20.309 4.212 24.521S15.204 60 28.769 60Z" fill="#07F"/><path d="M32.197 43.26c-13.53 0-21.74-9.387-22.059-24.985h6.852c.214 11.458 5.427 16.32 9.423 17.312V18.275h6.568v9.886c3.855-.427 7.887-4.925 9.245-9.886h6.459c-1.035 6.104-5.424 10.601-8.53 12.456 3.106 1.5 8.102 5.427 10.03 12.528h-7.102c-1.5-4.747-5.177-8.424-10.102-8.923v8.923h-.784Z" fill="#F2F2F2"/></g><defs><clipPath id="clip0_26_548"><path fill="#fff" d="M0 0h60v60H0z"/></clipPath></defs></svg>